<mxfile host="Electron" modified="2023-09-08T12:58:41.568Z" agent="Mozilla/5.0 (Windows NT 10.0; Win64; x64) AppleWebKit/537.36 (KHTML, like Gecko) draw.io/21.6.8 Chrome/114.0.5735.289 Electron/25.5.0 Safari/537.36" etag="A_zO19ak_JXF3pTcCikO" version="21.6.8" type="device">
  <diagram name="第1頁" id="88fxw60qQT2I4hSHPNCn">
    <mxGraphModel dx="1418" dy="1997" grid="1" gridSize="10" guides="1" tooltips="1" connect="1" arrows="1" fold="1" page="1" pageScale="1" pageWidth="827" pageHeight="1169" math="0" shadow="0">
      <root>
        <mxCell id="0" />
        <mxCell id="1" parent="0" />
        <mxCell id="e_DNNsqGoQ1BPr0Qhp8M-215" value="" style="rounded=0;whiteSpace=wrap;html=1;fillColor=none;strokeWidth=3;strokeColor=#FF0D0D;" vertex="1" parent="1">
          <mxGeometry x="2510" y="-130" width="1010" height="3540" as="geometry" />
        </mxCell>
        <mxCell id="e_DNNsqGoQ1BPr0Qhp8M-214" value="" style="rounded=0;whiteSpace=wrap;html=1;fillColor=none;strokeWidth=3;strokeColor=#FF0D0D;" vertex="1" parent="1">
          <mxGeometry x="40" y="-130" width="1530" height="4300" as="geometry" />
        </mxCell>
        <mxCell id="wVM6VVbsjTtl1nqaAGUt-2" value="&lt;h3 style=&quot;border-color: var(--border-color); margin: 6px 0px; font-family: &amp;quot;Lato Extended&amp;quot;, Lato, &amp;quot;Helvetica Neue&amp;quot;, Helvetica, Arial, sans-serif; font-weight: normal; line-height: 1.5; text-rendering: optimizelegibility; font-size: 1.5em; color: rgb(45, 59, 69); text-align: start; background-color: rgb(255, 255, 255);&quot;&gt;&lt;strong style=&quot;border-color: var(--border-color);&quot;&gt;功能&lt;/strong&gt;&lt;/h3&gt;&lt;ul style=&quot;border-color: var(--border-color); padding: 0px; margin: 0px 0px 6px 25px; color: rgb(45, 59, 69); font-family: LatoWeb, &amp;quot;Lato Extended&amp;quot;, Lato, &amp;quot;Helvetica Neue&amp;quot;, Helvetica, Arial, sans-serif; font-size: 16px; text-align: start; background-color: rgb(255, 255, 255);&quot;&gt;&lt;li style=&quot;border-color: var(--border-color);&quot;&gt;使用者可以新增一家餐廳&lt;/li&gt;&lt;li style=&quot;border-color: var(--border-color);&quot;&gt;使用者可以瀏覽一家餐廳的詳細資訊&lt;/li&gt;&lt;li style=&quot;border-color: var(--border-color);&quot;&gt;使用者可以瀏覽全部所有餐廳&lt;/li&gt;&lt;li style=&quot;border-color: var(--border-color);&quot;&gt;使用者可以修改一家餐廳的資訊&lt;/li&gt;&lt;li style=&quot;border-color: var(--border-color);&quot;&gt;使用者可以刪除一家餐廳&lt;/li&gt;&lt;/ul&gt;" style="rounded=0;whiteSpace=wrap;html=1;" parent="1" vertex="1">
          <mxGeometry x="80" y="30" width="320" height="170" as="geometry" />
        </mxCell>
        <mxCell id="wVM6VVbsjTtl1nqaAGUt-4" value="WireFrame" style="rounded=0;whiteSpace=wrap;html=1;fontSize=18;" parent="1" vertex="1">
          <mxGeometry x="80" y="240" width="700" height="40" as="geometry" />
        </mxCell>
        <mxCell id="wVM6VVbsjTtl1nqaAGUt-17" value="" style="group" parent="1" vertex="1" connectable="0">
          <mxGeometry x="80" y="1550" width="840" height="500" as="geometry" />
        </mxCell>
        <mxCell id="wVM6VVbsjTtl1nqaAGUt-10" value="" style="rounded=0;whiteSpace=wrap;html=1;" parent="wVM6VVbsjTtl1nqaAGUt-17" vertex="1">
          <mxGeometry width="680" height="500" as="geometry" />
        </mxCell>
        <mxCell id="wVM6VVbsjTtl1nqaAGUt-13" value="" style="rounded=0;whiteSpace=wrap;html=1;fillColor=#f5f5f5;fontColor=#333333;strokeColor=#666666;" parent="wVM6VVbsjTtl1nqaAGUt-17" vertex="1">
          <mxGeometry width="680" height="50" as="geometry" />
        </mxCell>
        <mxCell id="wVM6VVbsjTtl1nqaAGUt-11" value="Restaurant List" style="text;html=1;strokeColor=none;fillColor=none;align=center;verticalAlign=middle;whiteSpace=wrap;rounded=0;fontSize=15;fontStyle=1" parent="wVM6VVbsjTtl1nqaAGUt-17" vertex="1">
          <mxGeometry x="14" y="10" width="130" height="30" as="geometry" />
        </mxCell>
        <mxCell id="wVM6VVbsjTtl1nqaAGUt-12" value="Restaurant name" style="text;html=1;strokeColor=none;fillColor=none;align=center;verticalAlign=middle;whiteSpace=wrap;rounded=0;fontSize=17;" parent="wVM6VVbsjTtl1nqaAGUt-17" vertex="1">
          <mxGeometry x="230" y="80" width="176" height="30" as="geometry" />
        </mxCell>
        <mxCell id="wVM6VVbsjTtl1nqaAGUt-15" value="類別: XXX餐廳&lt;br&gt;地址:&amp;nbsp;306 XX縣XX市XX里XX街XX號&lt;br&gt;電話: 0912345678&lt;br&gt;介紹: 持主市也買下險全出水；了求理母過有術去大育。費進了動要活河海育調。山史讓行子以在大得？樂些那黑畫香標成算身。案容我她求？的路積輪。經維女馬上辦要親依遊紅唱絕真上、音麼離室式西高傳一級兩來財！過對可個清成對兒家精族；戰到首平看小和的一半像為顧官格、要麼身我考。" style="text;html=1;strokeColor=none;fillColor=none;align=left;verticalAlign=middle;whiteSpace=wrap;rounded=0;" parent="wVM6VVbsjTtl1nqaAGUt-17" vertex="1">
          <mxGeometry x="60" y="130" width="560" height="110" as="geometry" />
        </mxCell>
        <mxCell id="wVM6VVbsjTtl1nqaAGUt-16" value="back" style="text;html=1;strokeColor=none;fillColor=none;align=center;verticalAlign=middle;whiteSpace=wrap;rounded=0;fontStyle=4" parent="wVM6VVbsjTtl1nqaAGUt-17" vertex="1">
          <mxGeometry x="516" y="235" width="60" height="30" as="geometry" />
        </mxCell>
        <mxCell id="wVM6VVbsjTtl1nqaAGUt-29" value="edit" style="text;html=1;strokeColor=none;fillColor=none;align=center;verticalAlign=middle;whiteSpace=wrap;rounded=0;fontStyle=4" parent="wVM6VVbsjTtl1nqaAGUt-17" vertex="1">
          <mxGeometry x="481" y="235" width="60" height="30" as="geometry" />
        </mxCell>
        <mxCell id="wVM6VVbsjTtl1nqaAGUt-30" value="detele" style="text;html=1;strokeColor=none;fillColor=none;align=center;verticalAlign=middle;whiteSpace=wrap;rounded=0;fontStyle=4" parent="wVM6VVbsjTtl1nqaAGUt-17" vertex="1">
          <mxGeometry x="555" y="235" width="60" height="30" as="geometry" />
        </mxCell>
        <mxCell id="wVM6VVbsjTtl1nqaAGUt-25" value="首頁" style="rounded=1;whiteSpace=wrap;html=1;fontSize=17;verticalAlign=bottom;" parent="1" vertex="1">
          <mxGeometry x="354" y="310" width="120" height="30" as="geometry" />
        </mxCell>
        <mxCell id="wVM6VVbsjTtl1nqaAGUt-26" value="新增餐廳頁" style="rounded=1;whiteSpace=wrap;html=1;fontSize=17;verticalAlign=bottom;" parent="1" vertex="1">
          <mxGeometry x="360" y="1000" width="120" height="30" as="geometry" />
        </mxCell>
        <mxCell id="wVM6VVbsjTtl1nqaAGUt-27" value="檢視餐廳頁" style="rounded=1;whiteSpace=wrap;html=1;fontSize=17;verticalAlign=bottom;" parent="1" vertex="1">
          <mxGeometry x="360" y="1510" width="120" height="30" as="geometry" />
        </mxCell>
        <mxCell id="wVM6VVbsjTtl1nqaAGUt-31" value="" style="group" parent="1" vertex="1" connectable="0">
          <mxGeometry x="80" y="2120" width="1490" height="1590" as="geometry" />
        </mxCell>
        <mxCell id="wVM6VVbsjTtl1nqaAGUt-94" value="" style="group" parent="wVM6VVbsjTtl1nqaAGUt-31" vertex="1" connectable="0">
          <mxGeometry width="680" height="500" as="geometry" />
        </mxCell>
        <mxCell id="wVM6VVbsjTtl1nqaAGUt-32" value="" style="rounded=0;whiteSpace=wrap;html=1;container=0;" parent="wVM6VVbsjTtl1nqaAGUt-94" vertex="1">
          <mxGeometry width="680" height="500" as="geometry" />
        </mxCell>
        <mxCell id="wVM6VVbsjTtl1nqaAGUt-33" value="" style="rounded=0;whiteSpace=wrap;html=1;fillColor=#f5f5f5;fontColor=#333333;strokeColor=#666666;container=0;" parent="wVM6VVbsjTtl1nqaAGUt-94" vertex="1">
          <mxGeometry width="680" height="50" as="geometry" />
        </mxCell>
        <mxCell id="wVM6VVbsjTtl1nqaAGUt-34" value="Restaurant List" style="text;html=1;strokeColor=none;fillColor=none;align=center;verticalAlign=middle;whiteSpace=wrap;rounded=0;fontSize=15;fontStyle=1;container=0;" parent="wVM6VVbsjTtl1nqaAGUt-94" vertex="1">
          <mxGeometry x="14" y="10" width="130" height="30" as="geometry" />
        </mxCell>
        <mxCell id="wVM6VVbsjTtl1nqaAGUt-35" value="Restaurant name" style="text;html=1;strokeColor=none;fillColor=none;align=center;verticalAlign=middle;whiteSpace=wrap;rounded=0;fontSize=17;container=0;" parent="wVM6VVbsjTtl1nqaAGUt-94" vertex="1">
          <mxGeometry x="230" y="80" width="176" height="30" as="geometry" />
        </mxCell>
        <mxCell id="wVM6VVbsjTtl1nqaAGUt-36" value="類別:&amp;nbsp;&lt;br&gt;地址:&amp;nbsp;&lt;br&gt;電話:&lt;br&gt;介紹:&amp;nbsp;" style="text;html=1;strokeColor=none;fillColor=none;align=left;verticalAlign=top;whiteSpace=wrap;rounded=0;container=0;" parent="wVM6VVbsjTtl1nqaAGUt-94" vertex="1">
          <mxGeometry x="60" y="130" width="560" height="110" as="geometry" />
        </mxCell>
        <mxCell id="wVM6VVbsjTtl1nqaAGUt-37" value="back" style="text;html=1;strokeColor=none;fillColor=none;align=center;verticalAlign=middle;whiteSpace=wrap;rounded=0;fontStyle=4;container=0;" parent="wVM6VVbsjTtl1nqaAGUt-94" vertex="1">
          <mxGeometry x="567" y="235" width="60" height="30" as="geometry" />
        </mxCell>
        <mxCell id="wVM6VVbsjTtl1nqaAGUt-38" value="save" style="text;html=1;strokeColor=none;fillColor=none;align=center;verticalAlign=middle;whiteSpace=wrap;rounded=0;fontStyle=4;container=0;" parent="wVM6VVbsjTtl1nqaAGUt-94" vertex="1">
          <mxGeometry x="532" y="235" width="60" height="30" as="geometry" />
        </mxCell>
        <mxCell id="wVM6VVbsjTtl1nqaAGUt-41" value="XXX餐廳" style="rounded=0;whiteSpace=wrap;html=1;fontColor=#999999;align=left;container=0;" parent="wVM6VVbsjTtl1nqaAGUt-94" vertex="1">
          <mxGeometry x="91" y="137" width="209" height="12" as="geometry" />
        </mxCell>
        <mxCell id="wVM6VVbsjTtl1nqaAGUt-190" value="re" style="group" parent="wVM6VVbsjTtl1nqaAGUt-31" vertex="1" connectable="0">
          <mxGeometry x="-10" y="620" width="680" height="620" as="geometry" />
        </mxCell>
        <mxCell id="wVM6VVbsjTtl1nqaAGUt-191" value="" style="rounded=0;whiteSpace=wrap;html=1;" parent="wVM6VVbsjTtl1nqaAGUt-190" vertex="1">
          <mxGeometry width="680" height="440" as="geometry" />
        </mxCell>
        <mxCell id="wVM6VVbsjTtl1nqaAGUt-192" value="" style="rounded=0;whiteSpace=wrap;html=1;fillColor=#f5f5f5;fontColor=#333333;strokeColor=#666666;" parent="wVM6VVbsjTtl1nqaAGUt-190" vertex="1">
          <mxGeometry width="680" height="50" as="geometry" />
        </mxCell>
        <mxCell id="wVM6VVbsjTtl1nqaAGUt-193" value="Restaurant List" style="text;html=1;strokeColor=none;fillColor=none;align=center;verticalAlign=middle;whiteSpace=wrap;rounded=0;fontSize=15;fontStyle=1" parent="wVM6VVbsjTtl1nqaAGUt-190" vertex="1">
          <mxGeometry x="10" y="10" width="130" height="30" as="geometry" />
        </mxCell>
        <mxCell id="wVM6VVbsjTtl1nqaAGUt-194" value="" style="rounded=0;whiteSpace=wrap;html=1;align=left;fontColor=#999999;" parent="wVM6VVbsjTtl1nqaAGUt-190" vertex="1">
          <mxGeometry x="68.5" y="90" width="490" height="20" as="geometry" />
        </mxCell>
        <mxCell id="wVM6VVbsjTtl1nqaAGUt-195" value="search" style="rounded=1;whiteSpace=wrap;html=1;" parent="wVM6VVbsjTtl1nqaAGUt-190" vertex="1">
          <mxGeometry x="561.5" y="90" width="50" height="20" as="geometry" />
        </mxCell>
        <mxCell id="wVM6VVbsjTtl1nqaAGUt-196" value="Add a new restaurant" style="rounded=1;whiteSpace=wrap;html=1;" parent="wVM6VVbsjTtl1nqaAGUt-190" vertex="1">
          <mxGeometry x="68.5" y="120" width="120" height="20" as="geometry" />
        </mxCell>
        <mxCell id="wVM6VVbsjTtl1nqaAGUt-197" value="Detail" style="text;html=1;strokeColor=none;fillColor=none;align=center;verticalAlign=middle;whiteSpace=wrap;rounded=0;fontStyle=4;fontSize=10;" parent="wVM6VVbsjTtl1nqaAGUt-190" vertex="1">
          <mxGeometry x="139.5" y="310" width="60" height="30" as="geometry" />
        </mxCell>
        <mxCell id="wVM6VVbsjTtl1nqaAGUt-198" value="Edit" style="text;html=1;strokeColor=none;fillColor=none;align=center;verticalAlign=middle;whiteSpace=wrap;rounded=0;fontStyle=4;fontSize=10;" parent="wVM6VVbsjTtl1nqaAGUt-190" vertex="1">
          <mxGeometry x="110.5" y="310" width="60" height="30" as="geometry" />
        </mxCell>
        <mxCell id="wVM6VVbsjTtl1nqaAGUt-199" value="" style="rounded=0;whiteSpace=wrap;html=1;" parent="wVM6VVbsjTtl1nqaAGUt-190" vertex="1">
          <mxGeometry x="68.5" y="160" width="160" height="100" as="geometry" />
        </mxCell>
        <mxCell id="wVM6VVbsjTtl1nqaAGUt-200" value="" style="endArrow=none;html=1;rounded=0;entryX=1;entryY=0;entryDx=0;entryDy=0;exitX=0;exitY=1;exitDx=0;exitDy=0;" parent="wVM6VVbsjTtl1nqaAGUt-190" source="wVM6VVbsjTtl1nqaAGUt-199" target="wVM6VVbsjTtl1nqaAGUt-199" edge="1">
          <mxGeometry width="50" height="50" relative="1" as="geometry">
            <mxPoint x="-21.5" y="390" as="sourcePoint" />
            <mxPoint x="28.5" y="340" as="targetPoint" />
          </mxGeometry>
        </mxCell>
        <mxCell id="wVM6VVbsjTtl1nqaAGUt-201" value="" style="endArrow=none;html=1;rounded=0;entryX=0;entryY=0;entryDx=0;entryDy=0;exitX=1;exitY=1;exitDx=0;exitDy=0;" parent="wVM6VVbsjTtl1nqaAGUt-190" source="wVM6VVbsjTtl1nqaAGUt-199" target="wVM6VVbsjTtl1nqaAGUt-199" edge="1">
          <mxGeometry width="50" height="50" relative="1" as="geometry">
            <mxPoint x="-21.5" y="390" as="sourcePoint" />
            <mxPoint x="28.5" y="340" as="targetPoint" />
          </mxGeometry>
        </mxCell>
        <mxCell id="wVM6VVbsjTtl1nqaAGUt-202" value="restaurant name" style="rounded=0;whiteSpace=wrap;html=1;align=left;verticalAlign=top;" parent="wVM6VVbsjTtl1nqaAGUt-190" vertex="1">
          <mxGeometry x="68.5" y="260" width="160" height="50" as="geometry" />
        </mxCell>
        <mxCell id="wVM6VVbsjTtl1nqaAGUt-203" value="Delete" style="rounded=0;whiteSpace=wrap;html=1;fontSize=10;" parent="wVM6VVbsjTtl1nqaAGUt-190" vertex="1">
          <mxGeometry x="188.5" y="315" width="40" height="20" as="geometry" />
        </mxCell>
        <mxCell id="wVM6VVbsjTtl1nqaAGUt-204" value="Detail" style="text;html=1;strokeColor=none;fillColor=none;align=center;verticalAlign=middle;whiteSpace=wrap;rounded=0;fontStyle=4;fontSize=10;" parent="wVM6VVbsjTtl1nqaAGUt-190" vertex="1">
          <mxGeometry x="332.5" y="310" width="60" height="30" as="geometry" />
        </mxCell>
        <mxCell id="wVM6VVbsjTtl1nqaAGUt-205" value="Edit" style="text;html=1;strokeColor=none;fillColor=none;align=center;verticalAlign=middle;whiteSpace=wrap;rounded=0;fontStyle=4;fontSize=10;" parent="wVM6VVbsjTtl1nqaAGUt-190" vertex="1">
          <mxGeometry x="303.5" y="310" width="60" height="30" as="geometry" />
        </mxCell>
        <mxCell id="wVM6VVbsjTtl1nqaAGUt-206" value="" style="rounded=0;whiteSpace=wrap;html=1;" parent="wVM6VVbsjTtl1nqaAGUt-190" vertex="1">
          <mxGeometry x="261.5" y="160" width="160" height="100" as="geometry" />
        </mxCell>
        <mxCell id="wVM6VVbsjTtl1nqaAGUt-207" value="" style="endArrow=none;html=1;rounded=0;entryX=1;entryY=0;entryDx=0;entryDy=0;exitX=0;exitY=1;exitDx=0;exitDy=0;" parent="wVM6VVbsjTtl1nqaAGUt-190" source="wVM6VVbsjTtl1nqaAGUt-206" target="wVM6VVbsjTtl1nqaAGUt-206" edge="1">
          <mxGeometry width="50" height="50" relative="1" as="geometry">
            <mxPoint x="171.5" y="390" as="sourcePoint" />
            <mxPoint x="221.5" y="340" as="targetPoint" />
          </mxGeometry>
        </mxCell>
        <mxCell id="wVM6VVbsjTtl1nqaAGUt-208" value="" style="endArrow=none;html=1;rounded=0;entryX=0;entryY=0;entryDx=0;entryDy=0;exitX=1;exitY=1;exitDx=0;exitDy=0;" parent="wVM6VVbsjTtl1nqaAGUt-190" source="wVM6VVbsjTtl1nqaAGUt-206" target="wVM6VVbsjTtl1nqaAGUt-206" edge="1">
          <mxGeometry width="50" height="50" relative="1" as="geometry">
            <mxPoint x="171.5" y="390" as="sourcePoint" />
            <mxPoint x="221.5" y="340" as="targetPoint" />
          </mxGeometry>
        </mxCell>
        <mxCell id="wVM6VVbsjTtl1nqaAGUt-209" value="restaurant name" style="rounded=0;whiteSpace=wrap;html=1;align=left;verticalAlign=top;" parent="wVM6VVbsjTtl1nqaAGUt-190" vertex="1">
          <mxGeometry x="261.5" y="260" width="160" height="50" as="geometry" />
        </mxCell>
        <mxCell id="wVM6VVbsjTtl1nqaAGUt-210" value="Delete" style="rounded=0;whiteSpace=wrap;html=1;fontSize=10;" parent="wVM6VVbsjTtl1nqaAGUt-190" vertex="1">
          <mxGeometry x="381.5" y="315" width="40" height="20" as="geometry" />
        </mxCell>
        <mxCell id="wVM6VVbsjTtl1nqaAGUt-211" value="Detail" style="text;html=1;strokeColor=none;fillColor=none;align=center;verticalAlign=middle;whiteSpace=wrap;rounded=0;fontStyle=4;fontSize=10;" parent="wVM6VVbsjTtl1nqaAGUt-190" vertex="1">
          <mxGeometry x="522.5" y="310" width="60" height="30" as="geometry" />
        </mxCell>
        <mxCell id="wVM6VVbsjTtl1nqaAGUt-212" value="Edit" style="text;html=1;strokeColor=none;fillColor=none;align=center;verticalAlign=middle;whiteSpace=wrap;rounded=0;fontStyle=4;fontSize=10;" parent="wVM6VVbsjTtl1nqaAGUt-190" vertex="1">
          <mxGeometry x="493.5" y="310" width="60" height="30" as="geometry" />
        </mxCell>
        <mxCell id="wVM6VVbsjTtl1nqaAGUt-213" value="" style="rounded=0;whiteSpace=wrap;html=1;" parent="wVM6VVbsjTtl1nqaAGUt-190" vertex="1">
          <mxGeometry x="451.5" y="160" width="160" height="100" as="geometry" />
        </mxCell>
        <mxCell id="wVM6VVbsjTtl1nqaAGUt-214" value="" style="endArrow=none;html=1;rounded=0;entryX=1;entryY=0;entryDx=0;entryDy=0;exitX=0;exitY=1;exitDx=0;exitDy=0;" parent="wVM6VVbsjTtl1nqaAGUt-190" source="wVM6VVbsjTtl1nqaAGUt-213" target="wVM6VVbsjTtl1nqaAGUt-213" edge="1">
          <mxGeometry width="50" height="50" relative="1" as="geometry">
            <mxPoint x="361.5" y="390" as="sourcePoint" />
            <mxPoint x="411.5" y="340" as="targetPoint" />
          </mxGeometry>
        </mxCell>
        <mxCell id="wVM6VVbsjTtl1nqaAGUt-215" value="" style="endArrow=none;html=1;rounded=0;entryX=0;entryY=0;entryDx=0;entryDy=0;exitX=1;exitY=1;exitDx=0;exitDy=0;" parent="wVM6VVbsjTtl1nqaAGUt-190" source="wVM6VVbsjTtl1nqaAGUt-213" target="wVM6VVbsjTtl1nqaAGUt-213" edge="1">
          <mxGeometry width="50" height="50" relative="1" as="geometry">
            <mxPoint x="361.5" y="390" as="sourcePoint" />
            <mxPoint x="411.5" y="340" as="targetPoint" />
          </mxGeometry>
        </mxCell>
        <mxCell id="wVM6VVbsjTtl1nqaAGUt-216" value="restaurant name" style="rounded=0;whiteSpace=wrap;html=1;align=left;verticalAlign=top;" parent="wVM6VVbsjTtl1nqaAGUt-190" vertex="1">
          <mxGeometry x="451.5" y="260" width="160" height="50" as="geometry" />
        </mxCell>
        <mxCell id="wVM6VVbsjTtl1nqaAGUt-217" value="Delete" style="rounded=0;whiteSpace=wrap;html=1;fontSize=10;" parent="wVM6VVbsjTtl1nqaAGUt-190" vertex="1">
          <mxGeometry x="571.5" y="315" width="40" height="20" as="geometry" />
        </mxCell>
        <mxCell id="wVM6VVbsjTtl1nqaAGUt-239" style="edgeStyle=orthogonalEdgeStyle;rounded=0;orthogonalLoop=1;jettySize=auto;html=1;exitX=0.5;exitY=1;exitDx=0;exitDy=0;" parent="wVM6VVbsjTtl1nqaAGUt-190" source="wVM6VVbsjTtl1nqaAGUt-191" target="wVM6VVbsjTtl1nqaAGUt-191" edge="1">
          <mxGeometry relative="1" as="geometry" />
        </mxCell>
        <mxCell id="wVM6VVbsjTtl1nqaAGUt-308" value="首頁" style="rounded=1;whiteSpace=wrap;html=1;fontSize=17;verticalAlign=bottom;" parent="wVM6VVbsjTtl1nqaAGUt-190" vertex="1">
          <mxGeometry x="272.5" y="10" width="120" height="30" as="geometry" />
        </mxCell>
        <mxCell id="wVM6VVbsjTtl1nqaAGUt-240" style="edgeStyle=orthogonalEdgeStyle;rounded=0;orthogonalLoop=1;jettySize=auto;html=1;entryX=0;entryY=0.5;entryDx=0;entryDy=0;strokeColor=#ff0000;strokeWidth=2;" parent="wVM6VVbsjTtl1nqaAGUt-31" source="wVM6VVbsjTtl1nqaAGUt-196" target="wVM6VVbsjTtl1nqaAGUt-70" edge="1">
          <mxGeometry relative="1" as="geometry">
            <Array as="points">
              <mxPoint x="630" y="750" />
              <mxPoint x="630" y="645" />
            </Array>
          </mxGeometry>
        </mxCell>
        <mxCell id="wVM6VVbsjTtl1nqaAGUt-74" value="" style="group" parent="wVM6VVbsjTtl1nqaAGUt-31" vertex="1" connectable="0">
          <mxGeometry x="-10" y="1090" width="1390" height="500" as="geometry" />
        </mxCell>
        <mxCell id="wVM6VVbsjTtl1nqaAGUt-75" value="" style="rounded=0;whiteSpace=wrap;html=1;" parent="wVM6VVbsjTtl1nqaAGUt-74" vertex="1">
          <mxGeometry width="680" height="500" as="geometry" />
        </mxCell>
        <mxCell id="wVM6VVbsjTtl1nqaAGUt-76" value="" style="rounded=0;whiteSpace=wrap;html=1;fillColor=#f5f5f5;fontColor=#333333;strokeColor=#666666;" parent="wVM6VVbsjTtl1nqaAGUt-74" vertex="1">
          <mxGeometry width="680" height="50" as="geometry" />
        </mxCell>
        <mxCell id="wVM6VVbsjTtl1nqaAGUt-78" value="Restaurant name" style="text;html=1;strokeColor=none;fillColor=none;align=center;verticalAlign=middle;whiteSpace=wrap;rounded=0;fontSize=17;" parent="wVM6VVbsjTtl1nqaAGUt-74" vertex="1">
          <mxGeometry x="230" y="80" width="176" height="30" as="geometry" />
        </mxCell>
        <mxCell id="wVM6VVbsjTtl1nqaAGUt-79" value="類別: XXX餐廳&lt;br&gt;地址:&amp;nbsp;306 XX縣XX市XX里XX街XX號&lt;br&gt;電話: 0912345678&lt;br&gt;介紹: 持主市也買下險全出水；了求理母過有術去大育。費進了動要活河海育調。山史讓行子以在大得？樂些那黑畫香標成算身。案容我她求？的路積輪。經維女馬上辦要親依遊紅唱絕真上、音麼離室式西高傳一級兩來財！過對可個清成對兒家精族；戰到首平看小和的一半像為顧官格、要麼身我考。" style="text;html=1;strokeColor=none;fillColor=none;align=left;verticalAlign=middle;whiteSpace=wrap;rounded=0;" parent="wVM6VVbsjTtl1nqaAGUt-74" vertex="1">
          <mxGeometry x="60" y="130" width="560" height="110" as="geometry" />
        </mxCell>
        <mxCell id="wVM6VVbsjTtl1nqaAGUt-80" value="back" style="text;html=1;strokeColor=none;fillColor=none;align=center;verticalAlign=middle;whiteSpace=wrap;rounded=0;fontStyle=4" parent="wVM6VVbsjTtl1nqaAGUt-74" vertex="1">
          <mxGeometry x="516" y="235" width="60" height="30" as="geometry" />
        </mxCell>
        <mxCell id="wVM6VVbsjTtl1nqaAGUt-314" style="edgeStyle=orthogonalEdgeStyle;rounded=0;orthogonalLoop=1;jettySize=auto;html=1;entryX=0;entryY=0.62;entryDx=0;entryDy=0;entryPerimeter=0;exitX=0.5;exitY=1;exitDx=0;exitDy=0;strokeWidth=2;strokeColor=#FF0D0D;" parent="wVM6VVbsjTtl1nqaAGUt-74" source="wVM6VVbsjTtl1nqaAGUt-81" target="wVM6VVbsjTtl1nqaAGUt-115" edge="1">
          <mxGeometry relative="1" as="geometry">
            <Array as="points">
              <mxPoint x="511" y="310" />
            </Array>
          </mxGeometry>
        </mxCell>
        <mxCell id="wVM6VVbsjTtl1nqaAGUt-81" value="edit" style="text;html=1;strokeColor=none;fillColor=none;align=center;verticalAlign=middle;whiteSpace=wrap;rounded=0;fontStyle=4" parent="wVM6VVbsjTtl1nqaAGUt-74" vertex="1">
          <mxGeometry x="481" y="235" width="60" height="30" as="geometry" />
        </mxCell>
        <mxCell id="wVM6VVbsjTtl1nqaAGUt-331" style="edgeStyle=orthogonalEdgeStyle;rounded=0;orthogonalLoop=1;jettySize=auto;html=1;exitX=1;exitY=0.5;exitDx=0;exitDy=0;endArrow=none;endFill=0;strokeWidth=2;strokeColor=#FF0D0D;" parent="wVM6VVbsjTtl1nqaAGUt-74" source="wVM6VVbsjTtl1nqaAGUt-82" edge="1">
          <mxGeometry relative="1" as="geometry">
            <mxPoint x="640" y="210" as="targetPoint" />
          </mxGeometry>
        </mxCell>
        <mxCell id="wVM6VVbsjTtl1nqaAGUt-82" value="detele" style="text;html=1;strokeColor=none;fillColor=none;align=center;verticalAlign=middle;whiteSpace=wrap;rounded=0;fontStyle=4" parent="wVM6VVbsjTtl1nqaAGUt-74" vertex="1">
          <mxGeometry x="555" y="235" width="60" height="30" as="geometry" />
        </mxCell>
        <mxCell id="wVM6VVbsjTtl1nqaAGUt-114" value="" style="group" parent="wVM6VVbsjTtl1nqaAGUt-74" vertex="1" connectable="0">
          <mxGeometry x="710" width="680" height="500" as="geometry" />
        </mxCell>
        <mxCell id="wVM6VVbsjTtl1nqaAGUt-115" value="" style="rounded=0;whiteSpace=wrap;html=1;container=0;" parent="wVM6VVbsjTtl1nqaAGUt-114" vertex="1">
          <mxGeometry width="680" height="500" as="geometry" />
        </mxCell>
        <mxCell id="wVM6VVbsjTtl1nqaAGUt-116" value="" style="rounded=0;whiteSpace=wrap;html=1;fillColor=#f5f5f5;fontColor=#333333;strokeColor=#666666;container=0;" parent="wVM6VVbsjTtl1nqaAGUt-114" vertex="1">
          <mxGeometry width="680" height="50" as="geometry" />
        </mxCell>
        <mxCell id="wVM6VVbsjTtl1nqaAGUt-117" value="Restaurant List" style="text;html=1;strokeColor=none;fillColor=none;align=center;verticalAlign=middle;whiteSpace=wrap;rounded=0;fontSize=15;fontStyle=1;container=0;" parent="wVM6VVbsjTtl1nqaAGUt-114" vertex="1">
          <mxGeometry x="14" y="10" width="130" height="30" as="geometry" />
        </mxCell>
        <mxCell id="wVM6VVbsjTtl1nqaAGUt-119" value="類別:&amp;nbsp;&lt;br&gt;地址:&amp;nbsp;&lt;br&gt;電話:&lt;br&gt;介紹:&amp;nbsp;" style="text;html=1;strokeColor=none;fillColor=none;align=left;verticalAlign=top;whiteSpace=wrap;rounded=0;container=0;" parent="wVM6VVbsjTtl1nqaAGUt-114" vertex="1">
          <mxGeometry x="60" y="130" width="560" height="110" as="geometry" />
        </mxCell>
        <mxCell id="wVM6VVbsjTtl1nqaAGUt-120" value="back" style="text;html=1;strokeColor=none;fillColor=none;align=center;verticalAlign=middle;whiteSpace=wrap;rounded=0;fontStyle=4;container=0;" parent="wVM6VVbsjTtl1nqaAGUt-114" vertex="1">
          <mxGeometry x="567" y="235" width="60" height="30" as="geometry" />
        </mxCell>
        <mxCell id="wVM6VVbsjTtl1nqaAGUt-121" value="save" style="text;html=1;strokeColor=none;fillColor=none;align=center;verticalAlign=middle;whiteSpace=wrap;rounded=0;fontStyle=4;container=0;" parent="wVM6VVbsjTtl1nqaAGUt-114" vertex="1">
          <mxGeometry x="532" y="235" width="60" height="30" as="geometry" />
        </mxCell>
        <mxCell id="wVM6VVbsjTtl1nqaAGUt-122" value="XXX餐廳" style="rounded=0;whiteSpace=wrap;html=1;fontColor=#999999;align=left;container=0;" parent="wVM6VVbsjTtl1nqaAGUt-114" vertex="1">
          <mxGeometry x="91" y="137" width="209" height="12" as="geometry" />
        </mxCell>
        <mxCell id="wVM6VVbsjTtl1nqaAGUt-311" value="編輯餐廳頁" style="rounded=1;whiteSpace=wrap;html=1;fontSize=17;verticalAlign=bottom;" parent="wVM6VVbsjTtl1nqaAGUt-114" vertex="1">
          <mxGeometry x="270" y="10" width="120" height="30" as="geometry" />
        </mxCell>
        <mxCell id="wVM6VVbsjTtl1nqaAGUt-320" value="Restaurant name" style="rounded=0;whiteSpace=wrap;html=1;fontColor=#999999;align=center;container=0;" parent="wVM6VVbsjTtl1nqaAGUt-114" vertex="1">
          <mxGeometry x="197" y="68" width="209" height="42" as="geometry" />
        </mxCell>
        <mxCell id="wVM6VVbsjTtl1nqaAGUt-123" value="306 XX縣XX市XX里XX街XX號" style="rounded=0;whiteSpace=wrap;html=1;fontColor=#999999;align=left;container=0;" parent="wVM6VVbsjTtl1nqaAGUt-74" vertex="1">
          <mxGeometry x="802" y="152" width="208" height="12" as="geometry" />
        </mxCell>
        <mxCell id="wVM6VVbsjTtl1nqaAGUt-124" value="0912345678" style="rounded=0;whiteSpace=wrap;html=1;fontColor=#999999;align=left;container=0;" parent="wVM6VVbsjTtl1nqaAGUt-74" vertex="1">
          <mxGeometry x="802" y="167" width="208" height="12" as="geometry" />
        </mxCell>
        <mxCell id="wVM6VVbsjTtl1nqaAGUt-125" value="持主市也買下險全出水；了求理母過有術去大育。費進了動要活河海育調。山史讓行子以在大得？樂些那黑畫香標成算身。案容我她求？的路積輪。經維女馬上辦要親依遊紅唱絕真上、音麼離室式西高傳一級兩來財！過對可個清成對兒家精族；戰到首平看小和的一半像為顧官格、要麼身我考。" style="rounded=0;whiteSpace=wrap;html=1;fontColor=#999999;align=left;container=0;" parent="wVM6VVbsjTtl1nqaAGUt-74" vertex="1">
          <mxGeometry x="802" y="182" width="518" height="58" as="geometry" />
        </mxCell>
        <mxCell id="wVM6VVbsjTtl1nqaAGUt-307" value="Restaurant List" style="text;html=1;strokeColor=none;fillColor=none;align=center;verticalAlign=middle;whiteSpace=wrap;rounded=0;fontSize=15;fontStyle=1;container=0;" parent="wVM6VVbsjTtl1nqaAGUt-74" vertex="1">
          <mxGeometry x="20" y="10" width="130" height="30" as="geometry" />
        </mxCell>
        <mxCell id="wVM6VVbsjTtl1nqaAGUt-310" value="檢視餐廳頁" style="rounded=1;whiteSpace=wrap;html=1;fontSize=17;verticalAlign=bottom;" parent="wVM6VVbsjTtl1nqaAGUt-74" vertex="1">
          <mxGeometry x="280" y="10" width="120" height="30" as="geometry" />
        </mxCell>
        <mxCell id="wVM6VVbsjTtl1nqaAGUt-316" style="edgeStyle=orthogonalEdgeStyle;rounded=0;orthogonalLoop=1;jettySize=auto;html=1;strokeWidth=2;strokeColor=#FF0D0D;" parent="wVM6VVbsjTtl1nqaAGUt-74" source="wVM6VVbsjTtl1nqaAGUt-121" target="wVM6VVbsjTtl1nqaAGUt-75" edge="1">
          <mxGeometry relative="1" as="geometry" />
        </mxCell>
        <mxCell id="wVM6VVbsjTtl1nqaAGUt-68" value="" style="group" parent="wVM6VVbsjTtl1nqaAGUt-31" vertex="1" connectable="0">
          <mxGeometry x="710" y="620" width="680" height="440" as="geometry" />
        </mxCell>
        <mxCell id="wVM6VVbsjTtl1nqaAGUt-69" value="" style="rounded=0;whiteSpace=wrap;html=1;" parent="wVM6VVbsjTtl1nqaAGUt-68" vertex="1">
          <mxGeometry width="680" height="440" as="geometry" />
        </mxCell>
        <mxCell id="wVM6VVbsjTtl1nqaAGUt-70" value="" style="rounded=0;whiteSpace=wrap;html=1;fillColor=#f5f5f5;fontColor=#333333;strokeColor=#666666;" parent="wVM6VVbsjTtl1nqaAGUt-68" vertex="1">
          <mxGeometry width="680" height="50" as="geometry" />
        </mxCell>
        <mxCell id="wVM6VVbsjTtl1nqaAGUt-71" value="Restaurant List" style="text;html=1;strokeColor=none;fillColor=none;align=center;verticalAlign=middle;whiteSpace=wrap;rounded=0;fontSize=15;fontStyle=1" parent="wVM6VVbsjTtl1nqaAGUt-68" vertex="1">
          <mxGeometry x="10" y="10" width="130" height="30" as="geometry" />
        </mxCell>
        <mxCell id="wVM6VVbsjTtl1nqaAGUt-73" value="Add" style="rounded=1;whiteSpace=wrap;html=1;" parent="wVM6VVbsjTtl1nqaAGUt-68" vertex="1">
          <mxGeometry x="512" y="247" width="50" height="20" as="geometry" />
        </mxCell>
        <mxCell id="wVM6VVbsjTtl1nqaAGUt-309" value="新增餐廳頁" style="rounded=1;whiteSpace=wrap;html=1;fontSize=17;verticalAlign=bottom;" parent="wVM6VVbsjTtl1nqaAGUt-68" vertex="1">
          <mxGeometry x="260" y="10" width="120" height="30" as="geometry" />
        </mxCell>
        <mxCell id="wVM6VVbsjTtl1nqaAGUt-319" value="back" style="text;html=1;strokeColor=none;fillColor=none;align=center;verticalAlign=middle;whiteSpace=wrap;rounded=0;fontStyle=4;container=0;" parent="wVM6VVbsjTtl1nqaAGUt-68" vertex="1">
          <mxGeometry x="560" y="242" width="60" height="30" as="geometry" />
        </mxCell>
        <mxCell id="wVM6VVbsjTtl1nqaAGUt-321" value="類別:&amp;nbsp;&lt;br&gt;地址:&amp;nbsp;&lt;br&gt;電話:&lt;br&gt;介紹:&amp;nbsp;" style="text;html=1;strokeColor=none;fillColor=none;align=left;verticalAlign=top;whiteSpace=wrap;rounded=0;container=0;" parent="wVM6VVbsjTtl1nqaAGUt-68" vertex="1">
          <mxGeometry x="60" y="132" width="560" height="110" as="geometry" />
        </mxCell>
        <mxCell id="wVM6VVbsjTtl1nqaAGUt-324" value="XXX餐廳" style="rounded=0;whiteSpace=wrap;html=1;fontColor=#999999;align=left;container=0;" parent="wVM6VVbsjTtl1nqaAGUt-68" vertex="1">
          <mxGeometry x="91" y="139" width="209" height="12" as="geometry" />
        </mxCell>
        <mxCell id="wVM6VVbsjTtl1nqaAGUt-325" value="Restaurant name" style="rounded=0;whiteSpace=wrap;html=1;fontColor=#999999;align=center;container=0;" parent="wVM6VVbsjTtl1nqaAGUt-68" vertex="1">
          <mxGeometry x="215.5" y="80" width="209" height="42" as="geometry" />
        </mxCell>
        <mxCell id="wVM6VVbsjTtl1nqaAGUt-326" value="306 XX縣XX市XX里XX街XX號" style="rounded=0;whiteSpace=wrap;html=1;fontColor=#999999;align=left;container=0;" parent="wVM6VVbsjTtl1nqaAGUt-68" vertex="1">
          <mxGeometry x="92" y="154" width="208" height="12" as="geometry" />
        </mxCell>
        <mxCell id="wVM6VVbsjTtl1nqaAGUt-327" value="0912345678" style="rounded=0;whiteSpace=wrap;html=1;fontColor=#999999;align=left;container=0;" parent="wVM6VVbsjTtl1nqaAGUt-68" vertex="1">
          <mxGeometry x="92" y="169" width="208" height="12" as="geometry" />
        </mxCell>
        <mxCell id="wVM6VVbsjTtl1nqaAGUt-328" value="持主市也買下險全出水；了求理母過有術去大育。費進了動要活河海育調。山史讓行子以在大得？樂些那黑畫香標成算身。案容我她求？的路積輪。經維女馬上辦要親依遊紅唱絕真上、音麼離室式西高傳一級兩來財！過對可個清成對兒家精族；戰到首平看小和的一半像為顧官格、要麼身我考。" style="rounded=0;whiteSpace=wrap;html=1;fontColor=#999999;align=left;container=0;" parent="wVM6VVbsjTtl1nqaAGUt-68" vertex="1">
          <mxGeometry x="92" y="184" width="518" height="58" as="geometry" />
        </mxCell>
        <mxCell id="wVM6VVbsjTtl1nqaAGUt-312" style="edgeStyle=orthogonalEdgeStyle;rounded=0;orthogonalLoop=1;jettySize=auto;html=1;entryX=0.5;entryY=0;entryDx=0;entryDy=0;strokeWidth=2;strokeColor=#FF0D0D;" parent="wVM6VVbsjTtl1nqaAGUt-31" source="wVM6VVbsjTtl1nqaAGUt-197" target="wVM6VVbsjTtl1nqaAGUt-76" edge="1">
          <mxGeometry relative="1" as="geometry">
            <Array as="points">
              <mxPoint x="160" y="1070" />
              <mxPoint x="330" y="1070" />
            </Array>
          </mxGeometry>
        </mxCell>
        <mxCell id="wVM6VVbsjTtl1nqaAGUt-313" style="edgeStyle=orthogonalEdgeStyle;rounded=0;orthogonalLoop=1;jettySize=auto;html=1;exitX=0.5;exitY=1;exitDx=0;exitDy=0;entryX=0.5;entryY=0;entryDx=0;entryDy=0;strokeWidth=2;strokeColor=#FF0D0D;" parent="wVM6VVbsjTtl1nqaAGUt-31" source="wVM6VVbsjTtl1nqaAGUt-212" target="wVM6VVbsjTtl1nqaAGUt-116" edge="1">
          <mxGeometry relative="1" as="geometry">
            <Array as="points">
              <mxPoint x="514" y="1070" />
              <mxPoint x="1040" y="1070" />
            </Array>
          </mxGeometry>
        </mxCell>
        <mxCell id="wVM6VVbsjTtl1nqaAGUt-315" style="edgeStyle=orthogonalEdgeStyle;rounded=0;orthogonalLoop=1;jettySize=auto;html=1;entryX=0.691;entryY=1;entryDx=0;entryDy=0;entryPerimeter=0;strokeWidth=2;strokeColor=#FF0D0D;" parent="wVM6VVbsjTtl1nqaAGUt-31" source="wVM6VVbsjTtl1nqaAGUt-80" target="wVM6VVbsjTtl1nqaAGUt-191" edge="1">
          <mxGeometry relative="1" as="geometry">
            <Array as="points">
              <mxPoint x="536" y="1310" />
              <mxPoint x="630" y="1310" />
              <mxPoint x="630" y="1080" />
              <mxPoint x="460" y="1080" />
            </Array>
          </mxGeometry>
        </mxCell>
        <mxCell id="wVM6VVbsjTtl1nqaAGUt-329" style="edgeStyle=orthogonalEdgeStyle;rounded=0;orthogonalLoop=1;jettySize=auto;html=1;entryX=1;entryY=0.584;entryDx=0;entryDy=0;entryPerimeter=0;fontColor=#FF0D0D;strokeWidth=2;strokeColor=#FF0D0D;" parent="wVM6VVbsjTtl1nqaAGUt-31" source="wVM6VVbsjTtl1nqaAGUt-73" target="wVM6VVbsjTtl1nqaAGUt-191" edge="1">
          <mxGeometry relative="1" as="geometry" />
        </mxCell>
        <mxCell id="wVM6VVbsjTtl1nqaAGUt-330" style="edgeStyle=orthogonalEdgeStyle;rounded=0;orthogonalLoop=1;jettySize=auto;html=1;strokeWidth=2;strokeColor=#FF0D0D;" parent="wVM6VVbsjTtl1nqaAGUt-31" source="wVM6VVbsjTtl1nqaAGUt-319" edge="1">
          <mxGeometry relative="1" as="geometry">
            <mxPoint x="670" y="935" as="targetPoint" />
            <Array as="points">
              <mxPoint x="1300" y="935" />
            </Array>
          </mxGeometry>
        </mxCell>
        <mxCell id="wVM6VVbsjTtl1nqaAGUt-317" style="edgeStyle=orthogonalEdgeStyle;rounded=0;orthogonalLoop=1;jettySize=auto;html=1;entryX=1.001;entryY=0.923;entryDx=0;entryDy=0;entryPerimeter=0;strokeColor=#FF0D0D;strokeWidth=2;" parent="wVM6VVbsjTtl1nqaAGUt-31" source="wVM6VVbsjTtl1nqaAGUt-120" target="wVM6VVbsjTtl1nqaAGUt-191" edge="1">
          <mxGeometry relative="1" as="geometry">
            <Array as="points">
              <mxPoint x="1297" y="1369" />
              <mxPoint x="690" y="1369" />
              <mxPoint x="690" y="1026" />
            </Array>
          </mxGeometry>
        </mxCell>
        <mxCell id="wVM6VVbsjTtl1nqaAGUt-40" value="編輯餐廳頁" style="rounded=1;whiteSpace=wrap;html=1;fontSize=17;verticalAlign=bottom;" parent="1" vertex="1">
          <mxGeometry x="360" y="2080" width="120" height="30" as="geometry" />
        </mxCell>
        <mxCell id="wVM6VVbsjTtl1nqaAGUt-43" value="306 XX縣XX市XX里XX街XX號" style="rounded=0;whiteSpace=wrap;html=1;fontColor=#999999;align=left;container=0;" parent="1" vertex="1">
          <mxGeometry x="172" y="2272" width="208" height="12" as="geometry" />
        </mxCell>
        <mxCell id="wVM6VVbsjTtl1nqaAGUt-44" value="0912345678" style="rounded=0;whiteSpace=wrap;html=1;fontColor=#999999;align=left;container=0;" parent="1" vertex="1">
          <mxGeometry x="172" y="2287" width="208" height="12" as="geometry" />
        </mxCell>
        <mxCell id="wVM6VVbsjTtl1nqaAGUt-45" value="持主市也買下險全出水；了求理母過有術去大育。費進了動要活河海育調。山史讓行子以在大得？樂些那黑畫香標成算身。案容我她求？的路積輪。經維女馬上辦要親依遊紅唱絕真上、音麼離室式西高傳一級兩來財！過對可個清成對兒家精族；戰到首平看小和的一半像為顧官格、要麼身我考。" style="rounded=0;whiteSpace=wrap;html=1;fontColor=#999999;align=left;container=0;" parent="1" vertex="1">
          <mxGeometry x="172" y="2302" width="518" height="58" as="geometry" />
        </mxCell>
        <mxCell id="wVM6VVbsjTtl1nqaAGUt-47" value="UserFlow" style="rounded=0;whiteSpace=wrap;html=1;fontSize=18;" parent="1" vertex="1">
          <mxGeometry x="70" y="2680" width="700" height="40" as="geometry" />
        </mxCell>
        <mxCell id="wVM6VVbsjTtl1nqaAGUt-49" value="" style="group" parent="1" vertex="1" connectable="0">
          <mxGeometry x="80" y="1040" width="680" height="440" as="geometry" />
        </mxCell>
        <mxCell id="wVM6VVbsjTtl1nqaAGUt-18" value="" style="rounded=0;whiteSpace=wrap;html=1;" parent="wVM6VVbsjTtl1nqaAGUt-49" vertex="1">
          <mxGeometry width="680" height="440" as="geometry" />
        </mxCell>
        <mxCell id="wVM6VVbsjTtl1nqaAGUt-19" value="" style="rounded=0;whiteSpace=wrap;html=1;fillColor=#f5f5f5;fontColor=#333333;strokeColor=#666666;" parent="wVM6VVbsjTtl1nqaAGUt-49" vertex="1">
          <mxGeometry width="680" height="50" as="geometry" />
        </mxCell>
        <mxCell id="wVM6VVbsjTtl1nqaAGUt-20" value="Restaurant List" style="text;html=1;strokeColor=none;fillColor=none;align=center;verticalAlign=middle;whiteSpace=wrap;rounded=0;fontSize=15;fontStyle=1" parent="wVM6VVbsjTtl1nqaAGUt-49" vertex="1">
          <mxGeometry x="10" y="10" width="130" height="30" as="geometry" />
        </mxCell>
        <mxCell id="wVM6VVbsjTtl1nqaAGUt-21" value="please input a new restaurant name" style="rounded=0;whiteSpace=wrap;html=1;align=left;fontColor=#999999;" parent="wVM6VVbsjTtl1nqaAGUt-49" vertex="1">
          <mxGeometry x="20" y="70" width="210" height="20" as="geometry" />
        </mxCell>
        <mxCell id="wVM6VVbsjTtl1nqaAGUt-23" value="Add" style="rounded=1;whiteSpace=wrap;html=1;" parent="wVM6VVbsjTtl1nqaAGUt-49" vertex="1">
          <mxGeometry x="238" y="70" width="50" height="20" as="geometry" />
        </mxCell>
        <mxCell id="wVM6VVbsjTtl1nqaAGUt-128" value="re" style="group" parent="1" vertex="1" connectable="0">
          <mxGeometry x="80" y="340" width="680" height="620" as="geometry" />
        </mxCell>
        <mxCell id="wVM6VVbsjTtl1nqaAGUt-129" value="" style="rounded=0;whiteSpace=wrap;html=1;" parent="wVM6VVbsjTtl1nqaAGUt-128" vertex="1">
          <mxGeometry width="680" height="620" as="geometry" />
        </mxCell>
        <mxCell id="wVM6VVbsjTtl1nqaAGUt-130" value="" style="rounded=0;whiteSpace=wrap;html=1;fillColor=#f5f5f5;fontColor=#333333;strokeColor=#666666;" parent="wVM6VVbsjTtl1nqaAGUt-128" vertex="1">
          <mxGeometry width="680" height="50" as="geometry" />
        </mxCell>
        <mxCell id="wVM6VVbsjTtl1nqaAGUt-131" value="Restaurant List" style="text;html=1;strokeColor=none;fillColor=none;align=center;verticalAlign=middle;whiteSpace=wrap;rounded=0;fontSize=15;fontStyle=1" parent="wVM6VVbsjTtl1nqaAGUt-128" vertex="1">
          <mxGeometry x="10" y="10" width="130" height="30" as="geometry" />
        </mxCell>
        <mxCell id="wVM6VVbsjTtl1nqaAGUt-132" value="" style="rounded=0;whiteSpace=wrap;html=1;align=left;fontColor=#999999;" parent="wVM6VVbsjTtl1nqaAGUt-128" vertex="1">
          <mxGeometry x="68.5" y="90" width="490" height="20" as="geometry" />
        </mxCell>
        <mxCell id="wVM6VVbsjTtl1nqaAGUt-133" value="search" style="rounded=1;whiteSpace=wrap;html=1;" parent="wVM6VVbsjTtl1nqaAGUt-128" vertex="1">
          <mxGeometry x="561.5" y="90" width="50" height="20" as="geometry" />
        </mxCell>
        <mxCell id="wVM6VVbsjTtl1nqaAGUt-134" value="Add a new restaurant" style="rounded=1;whiteSpace=wrap;html=1;" parent="wVM6VVbsjTtl1nqaAGUt-128" vertex="1">
          <mxGeometry x="68.5" y="120" width="120" height="20" as="geometry" />
        </mxCell>
        <mxCell id="wVM6VVbsjTtl1nqaAGUt-139" value="Detail" style="text;html=1;strokeColor=none;fillColor=none;align=center;verticalAlign=middle;whiteSpace=wrap;rounded=0;fontStyle=4;fontSize=10;" parent="wVM6VVbsjTtl1nqaAGUt-128" vertex="1">
          <mxGeometry x="139.5" y="310" width="60" height="30" as="geometry" />
        </mxCell>
        <mxCell id="wVM6VVbsjTtl1nqaAGUt-140" value="Edit" style="text;html=1;strokeColor=none;fillColor=none;align=center;verticalAlign=middle;whiteSpace=wrap;rounded=0;fontStyle=4;fontSize=10;" parent="wVM6VVbsjTtl1nqaAGUt-128" vertex="1">
          <mxGeometry x="110.5" y="310" width="60" height="30" as="geometry" />
        </mxCell>
        <mxCell id="wVM6VVbsjTtl1nqaAGUt-135" value="" style="rounded=0;whiteSpace=wrap;html=1;" parent="wVM6VVbsjTtl1nqaAGUt-128" vertex="1">
          <mxGeometry x="68.5" y="160" width="160" height="100" as="geometry" />
        </mxCell>
        <mxCell id="wVM6VVbsjTtl1nqaAGUt-136" value="" style="endArrow=none;html=1;rounded=0;entryX=1;entryY=0;entryDx=0;entryDy=0;exitX=0;exitY=1;exitDx=0;exitDy=0;" parent="wVM6VVbsjTtl1nqaAGUt-128" source="wVM6VVbsjTtl1nqaAGUt-135" target="wVM6VVbsjTtl1nqaAGUt-135" edge="1">
          <mxGeometry width="50" height="50" relative="1" as="geometry">
            <mxPoint x="-21.5" y="390" as="sourcePoint" />
            <mxPoint x="28.5" y="340" as="targetPoint" />
          </mxGeometry>
        </mxCell>
        <mxCell id="wVM6VVbsjTtl1nqaAGUt-137" value="" style="endArrow=none;html=1;rounded=0;entryX=0;entryY=0;entryDx=0;entryDy=0;exitX=1;exitY=1;exitDx=0;exitDy=0;" parent="wVM6VVbsjTtl1nqaAGUt-128" source="wVM6VVbsjTtl1nqaAGUt-135" target="wVM6VVbsjTtl1nqaAGUt-135" edge="1">
          <mxGeometry width="50" height="50" relative="1" as="geometry">
            <mxPoint x="-21.5" y="390" as="sourcePoint" />
            <mxPoint x="28.5" y="340" as="targetPoint" />
          </mxGeometry>
        </mxCell>
        <mxCell id="wVM6VVbsjTtl1nqaAGUt-138" value="restaurant name" style="rounded=0;whiteSpace=wrap;html=1;align=left;verticalAlign=top;" parent="wVM6VVbsjTtl1nqaAGUt-128" vertex="1">
          <mxGeometry x="68.5" y="260" width="160" height="50" as="geometry" />
        </mxCell>
        <mxCell id="wVM6VVbsjTtl1nqaAGUt-142" value="Delete" style="rounded=0;whiteSpace=wrap;html=1;fontSize=10;" parent="wVM6VVbsjTtl1nqaAGUt-128" vertex="1">
          <mxGeometry x="188.5" y="315" width="40" height="20" as="geometry" />
        </mxCell>
        <mxCell id="wVM6VVbsjTtl1nqaAGUt-155" value="Detail" style="text;html=1;strokeColor=none;fillColor=none;align=center;verticalAlign=middle;whiteSpace=wrap;rounded=0;fontStyle=4;fontSize=10;" parent="wVM6VVbsjTtl1nqaAGUt-128" vertex="1">
          <mxGeometry x="332.5" y="310" width="60" height="30" as="geometry" />
        </mxCell>
        <mxCell id="wVM6VVbsjTtl1nqaAGUt-156" value="Edit" style="text;html=1;strokeColor=none;fillColor=none;align=center;verticalAlign=middle;whiteSpace=wrap;rounded=0;fontStyle=4;fontSize=10;" parent="wVM6VVbsjTtl1nqaAGUt-128" vertex="1">
          <mxGeometry x="303.5" y="310" width="60" height="30" as="geometry" />
        </mxCell>
        <mxCell id="wVM6VVbsjTtl1nqaAGUt-157" value="" style="rounded=0;whiteSpace=wrap;html=1;" parent="wVM6VVbsjTtl1nqaAGUt-128" vertex="1">
          <mxGeometry x="261.5" y="160" width="160" height="100" as="geometry" />
        </mxCell>
        <mxCell id="wVM6VVbsjTtl1nqaAGUt-158" value="" style="endArrow=none;html=1;rounded=0;entryX=1;entryY=0;entryDx=0;entryDy=0;exitX=0;exitY=1;exitDx=0;exitDy=0;" parent="wVM6VVbsjTtl1nqaAGUt-128" source="wVM6VVbsjTtl1nqaAGUt-157" target="wVM6VVbsjTtl1nqaAGUt-157" edge="1">
          <mxGeometry width="50" height="50" relative="1" as="geometry">
            <mxPoint x="171.5" y="390" as="sourcePoint" />
            <mxPoint x="221.5" y="340" as="targetPoint" />
          </mxGeometry>
        </mxCell>
        <mxCell id="wVM6VVbsjTtl1nqaAGUt-159" value="" style="endArrow=none;html=1;rounded=0;entryX=0;entryY=0;entryDx=0;entryDy=0;exitX=1;exitY=1;exitDx=0;exitDy=0;" parent="wVM6VVbsjTtl1nqaAGUt-128" source="wVM6VVbsjTtl1nqaAGUt-157" target="wVM6VVbsjTtl1nqaAGUt-157" edge="1">
          <mxGeometry width="50" height="50" relative="1" as="geometry">
            <mxPoint x="171.5" y="390" as="sourcePoint" />
            <mxPoint x="221.5" y="340" as="targetPoint" />
          </mxGeometry>
        </mxCell>
        <mxCell id="wVM6VVbsjTtl1nqaAGUt-160" value="restaurant name" style="rounded=0;whiteSpace=wrap;html=1;align=left;verticalAlign=top;" parent="wVM6VVbsjTtl1nqaAGUt-128" vertex="1">
          <mxGeometry x="261.5" y="260" width="160" height="50" as="geometry" />
        </mxCell>
        <mxCell id="wVM6VVbsjTtl1nqaAGUt-161" value="Delete" style="rounded=0;whiteSpace=wrap;html=1;fontSize=10;" parent="wVM6VVbsjTtl1nqaAGUt-128" vertex="1">
          <mxGeometry x="381.5" y="315" width="40" height="20" as="geometry" />
        </mxCell>
        <mxCell id="wVM6VVbsjTtl1nqaAGUt-162" value="Detail" style="text;html=1;strokeColor=none;fillColor=none;align=center;verticalAlign=middle;whiteSpace=wrap;rounded=0;fontStyle=4;fontSize=10;" parent="wVM6VVbsjTtl1nqaAGUt-128" vertex="1">
          <mxGeometry x="522.5" y="310" width="60" height="30" as="geometry" />
        </mxCell>
        <mxCell id="wVM6VVbsjTtl1nqaAGUt-163" value="Edit" style="text;html=1;strokeColor=none;fillColor=none;align=center;verticalAlign=middle;whiteSpace=wrap;rounded=0;fontStyle=4;fontSize=10;" parent="wVM6VVbsjTtl1nqaAGUt-128" vertex="1">
          <mxGeometry x="493.5" y="310" width="60" height="30" as="geometry" />
        </mxCell>
        <mxCell id="wVM6VVbsjTtl1nqaAGUt-164" value="" style="rounded=0;whiteSpace=wrap;html=1;" parent="wVM6VVbsjTtl1nqaAGUt-128" vertex="1">
          <mxGeometry x="451.5" y="160" width="160" height="100" as="geometry" />
        </mxCell>
        <mxCell id="wVM6VVbsjTtl1nqaAGUt-165" value="" style="endArrow=none;html=1;rounded=0;entryX=1;entryY=0;entryDx=0;entryDy=0;exitX=0;exitY=1;exitDx=0;exitDy=0;" parent="wVM6VVbsjTtl1nqaAGUt-128" source="wVM6VVbsjTtl1nqaAGUt-164" target="wVM6VVbsjTtl1nqaAGUt-164" edge="1">
          <mxGeometry width="50" height="50" relative="1" as="geometry">
            <mxPoint x="361.5" y="390" as="sourcePoint" />
            <mxPoint x="411.5" y="340" as="targetPoint" />
          </mxGeometry>
        </mxCell>
        <mxCell id="wVM6VVbsjTtl1nqaAGUt-166" value="" style="endArrow=none;html=1;rounded=0;entryX=0;entryY=0;entryDx=0;entryDy=0;exitX=1;exitY=1;exitDx=0;exitDy=0;" parent="wVM6VVbsjTtl1nqaAGUt-128" source="wVM6VVbsjTtl1nqaAGUt-164" target="wVM6VVbsjTtl1nqaAGUt-164" edge="1">
          <mxGeometry width="50" height="50" relative="1" as="geometry">
            <mxPoint x="361.5" y="390" as="sourcePoint" />
            <mxPoint x="411.5" y="340" as="targetPoint" />
          </mxGeometry>
        </mxCell>
        <mxCell id="wVM6VVbsjTtl1nqaAGUt-167" value="restaurant name" style="rounded=0;whiteSpace=wrap;html=1;align=left;verticalAlign=top;" parent="wVM6VVbsjTtl1nqaAGUt-128" vertex="1">
          <mxGeometry x="451.5" y="260" width="160" height="50" as="geometry" />
        </mxCell>
        <mxCell id="wVM6VVbsjTtl1nqaAGUt-168" value="Delete" style="rounded=0;whiteSpace=wrap;html=1;fontSize=10;" parent="wVM6VVbsjTtl1nqaAGUt-128" vertex="1">
          <mxGeometry x="571.5" y="315" width="40" height="20" as="geometry" />
        </mxCell>
        <mxCell id="wVM6VVbsjTtl1nqaAGUt-169" value="Detail" style="text;html=1;strokeColor=none;fillColor=none;align=center;verticalAlign=middle;whiteSpace=wrap;rounded=0;fontStyle=4;fontSize=10;" parent="wVM6VVbsjTtl1nqaAGUt-128" vertex="1">
          <mxGeometry x="139.5" y="500" width="60" height="30" as="geometry" />
        </mxCell>
        <mxCell id="wVM6VVbsjTtl1nqaAGUt-170" value="Edit" style="text;html=1;strokeColor=none;fillColor=none;align=center;verticalAlign=middle;whiteSpace=wrap;rounded=0;fontStyle=4;fontSize=10;" parent="wVM6VVbsjTtl1nqaAGUt-128" vertex="1">
          <mxGeometry x="110.5" y="500" width="60" height="30" as="geometry" />
        </mxCell>
        <mxCell id="wVM6VVbsjTtl1nqaAGUt-171" value="" style="rounded=0;whiteSpace=wrap;html=1;" parent="wVM6VVbsjTtl1nqaAGUt-128" vertex="1">
          <mxGeometry x="68.5" y="350" width="160" height="100" as="geometry" />
        </mxCell>
        <mxCell id="wVM6VVbsjTtl1nqaAGUt-172" value="" style="endArrow=none;html=1;rounded=0;entryX=1;entryY=0;entryDx=0;entryDy=0;exitX=0;exitY=1;exitDx=0;exitDy=0;" parent="wVM6VVbsjTtl1nqaAGUt-128" source="wVM6VVbsjTtl1nqaAGUt-171" target="wVM6VVbsjTtl1nqaAGUt-171" edge="1">
          <mxGeometry width="50" height="50" relative="1" as="geometry">
            <mxPoint x="-21.5" y="580" as="sourcePoint" />
            <mxPoint x="28.5" y="530" as="targetPoint" />
          </mxGeometry>
        </mxCell>
        <mxCell id="wVM6VVbsjTtl1nqaAGUt-173" value="" style="endArrow=none;html=1;rounded=0;entryX=0;entryY=0;entryDx=0;entryDy=0;exitX=1;exitY=1;exitDx=0;exitDy=0;" parent="wVM6VVbsjTtl1nqaAGUt-128" source="wVM6VVbsjTtl1nqaAGUt-171" target="wVM6VVbsjTtl1nqaAGUt-171" edge="1">
          <mxGeometry width="50" height="50" relative="1" as="geometry">
            <mxPoint x="-21.5" y="580" as="sourcePoint" />
            <mxPoint x="28.5" y="530" as="targetPoint" />
          </mxGeometry>
        </mxCell>
        <mxCell id="wVM6VVbsjTtl1nqaAGUt-174" value="restaurant name" style="rounded=0;whiteSpace=wrap;html=1;align=left;verticalAlign=top;" parent="wVM6VVbsjTtl1nqaAGUt-128" vertex="1">
          <mxGeometry x="68.5" y="450" width="160" height="50" as="geometry" />
        </mxCell>
        <mxCell id="wVM6VVbsjTtl1nqaAGUt-175" value="Delete" style="rounded=0;whiteSpace=wrap;html=1;fontSize=10;" parent="wVM6VVbsjTtl1nqaAGUt-128" vertex="1">
          <mxGeometry x="188.5" y="505" width="40" height="20" as="geometry" />
        </mxCell>
        <mxCell id="wVM6VVbsjTtl1nqaAGUt-176" value="Detail" style="text;html=1;strokeColor=none;fillColor=none;align=center;verticalAlign=middle;whiteSpace=wrap;rounded=0;fontStyle=4;fontSize=10;" parent="wVM6VVbsjTtl1nqaAGUt-128" vertex="1">
          <mxGeometry x="332.5" y="500" width="60" height="30" as="geometry" />
        </mxCell>
        <mxCell id="wVM6VVbsjTtl1nqaAGUt-177" value="Edit" style="text;html=1;strokeColor=none;fillColor=none;align=center;verticalAlign=middle;whiteSpace=wrap;rounded=0;fontStyle=4;fontSize=10;" parent="wVM6VVbsjTtl1nqaAGUt-128" vertex="1">
          <mxGeometry x="303.5" y="500" width="60" height="30" as="geometry" />
        </mxCell>
        <mxCell id="wVM6VVbsjTtl1nqaAGUt-178" value="" style="rounded=0;whiteSpace=wrap;html=1;" parent="wVM6VVbsjTtl1nqaAGUt-128" vertex="1">
          <mxGeometry x="261.5" y="350" width="160" height="100" as="geometry" />
        </mxCell>
        <mxCell id="wVM6VVbsjTtl1nqaAGUt-179" value="" style="endArrow=none;html=1;rounded=0;entryX=1;entryY=0;entryDx=0;entryDy=0;exitX=0;exitY=1;exitDx=0;exitDy=0;" parent="wVM6VVbsjTtl1nqaAGUt-128" source="wVM6VVbsjTtl1nqaAGUt-178" target="wVM6VVbsjTtl1nqaAGUt-178" edge="1">
          <mxGeometry width="50" height="50" relative="1" as="geometry">
            <mxPoint x="171.5" y="580" as="sourcePoint" />
            <mxPoint x="221.5" y="530" as="targetPoint" />
          </mxGeometry>
        </mxCell>
        <mxCell id="wVM6VVbsjTtl1nqaAGUt-180" value="" style="endArrow=none;html=1;rounded=0;entryX=0;entryY=0;entryDx=0;entryDy=0;exitX=1;exitY=1;exitDx=0;exitDy=0;" parent="wVM6VVbsjTtl1nqaAGUt-128" source="wVM6VVbsjTtl1nqaAGUt-178" target="wVM6VVbsjTtl1nqaAGUt-178" edge="1">
          <mxGeometry width="50" height="50" relative="1" as="geometry">
            <mxPoint x="171.5" y="580" as="sourcePoint" />
            <mxPoint x="221.5" y="530" as="targetPoint" />
          </mxGeometry>
        </mxCell>
        <mxCell id="wVM6VVbsjTtl1nqaAGUt-181" value="restaurant name" style="rounded=0;whiteSpace=wrap;html=1;align=left;verticalAlign=top;" parent="wVM6VVbsjTtl1nqaAGUt-128" vertex="1">
          <mxGeometry x="261.5" y="450" width="160" height="50" as="geometry" />
        </mxCell>
        <mxCell id="wVM6VVbsjTtl1nqaAGUt-182" value="Delete" style="rounded=0;whiteSpace=wrap;html=1;fontSize=10;" parent="wVM6VVbsjTtl1nqaAGUt-128" vertex="1">
          <mxGeometry x="381.5" y="505" width="40" height="20" as="geometry" />
        </mxCell>
        <mxCell id="wVM6VVbsjTtl1nqaAGUt-183" value="Detail" style="text;html=1;strokeColor=none;fillColor=none;align=center;verticalAlign=middle;whiteSpace=wrap;rounded=0;fontStyle=4;fontSize=10;" parent="wVM6VVbsjTtl1nqaAGUt-128" vertex="1">
          <mxGeometry x="522.5" y="500" width="60" height="30" as="geometry" />
        </mxCell>
        <mxCell id="wVM6VVbsjTtl1nqaAGUt-184" value="Edit" style="text;html=1;strokeColor=none;fillColor=none;align=center;verticalAlign=middle;whiteSpace=wrap;rounded=0;fontStyle=4;fontSize=10;" parent="wVM6VVbsjTtl1nqaAGUt-128" vertex="1">
          <mxGeometry x="493.5" y="500" width="60" height="30" as="geometry" />
        </mxCell>
        <mxCell id="wVM6VVbsjTtl1nqaAGUt-185" value="" style="rounded=0;whiteSpace=wrap;html=1;" parent="wVM6VVbsjTtl1nqaAGUt-128" vertex="1">
          <mxGeometry x="451.5" y="350" width="160" height="100" as="geometry" />
        </mxCell>
        <mxCell id="wVM6VVbsjTtl1nqaAGUt-186" value="" style="endArrow=none;html=1;rounded=0;entryX=1;entryY=0;entryDx=0;entryDy=0;exitX=0;exitY=1;exitDx=0;exitDy=0;" parent="wVM6VVbsjTtl1nqaAGUt-128" source="wVM6VVbsjTtl1nqaAGUt-185" target="wVM6VVbsjTtl1nqaAGUt-185" edge="1">
          <mxGeometry width="50" height="50" relative="1" as="geometry">
            <mxPoint x="361.5" y="580" as="sourcePoint" />
            <mxPoint x="411.5" y="530" as="targetPoint" />
          </mxGeometry>
        </mxCell>
        <mxCell id="wVM6VVbsjTtl1nqaAGUt-187" value="" style="endArrow=none;html=1;rounded=0;entryX=0;entryY=0;entryDx=0;entryDy=0;exitX=1;exitY=1;exitDx=0;exitDy=0;" parent="wVM6VVbsjTtl1nqaAGUt-128" source="wVM6VVbsjTtl1nqaAGUt-185" target="wVM6VVbsjTtl1nqaAGUt-185" edge="1">
          <mxGeometry width="50" height="50" relative="1" as="geometry">
            <mxPoint x="361.5" y="580" as="sourcePoint" />
            <mxPoint x="411.5" y="530" as="targetPoint" />
          </mxGeometry>
        </mxCell>
        <mxCell id="wVM6VVbsjTtl1nqaAGUt-188" value="restaurant name" style="rounded=0;whiteSpace=wrap;html=1;align=left;verticalAlign=top;" parent="wVM6VVbsjTtl1nqaAGUt-128" vertex="1">
          <mxGeometry x="451.5" y="450" width="160" height="50" as="geometry" />
        </mxCell>
        <mxCell id="wVM6VVbsjTtl1nqaAGUt-189" value="Delete" style="rounded=0;whiteSpace=wrap;html=1;fontSize=10;" parent="wVM6VVbsjTtl1nqaAGUt-128" vertex="1">
          <mxGeometry x="571.5" y="505" width="40" height="20" as="geometry" />
        </mxCell>
        <mxCell id="wVM6VVbsjTtl1nqaAGUt-366" value="" style="shape=table;startSize=0;container=1;collapsible=0;childLayout=tableLayout;fontSize=16;" parent="1" vertex="1">
          <mxGeometry x="70" y="3820" width="500" height="320" as="geometry" />
        </mxCell>
        <mxCell id="wVM6VVbsjTtl1nqaAGUt-367" value="" style="shape=tableRow;horizontal=0;startSize=0;swimlaneHead=0;swimlaneBody=0;strokeColor=inherit;top=0;left=0;bottom=0;right=0;collapsible=0;dropTarget=0;fillColor=none;points=[[0,0.5],[1,0.5]];portConstraint=eastwest;fontSize=16;" parent="wVM6VVbsjTtl1nqaAGUt-366" vertex="1">
          <mxGeometry width="500" height="40" as="geometry" />
        </mxCell>
        <mxCell id="wVM6VVbsjTtl1nqaAGUt-368" value="操作動作" style="shape=partialRectangle;html=1;whiteSpace=wrap;connectable=0;strokeColor=inherit;overflow=hidden;fillColor=none;top=0;left=0;bottom=0;right=0;pointerEvents=1;fontSize=16;" parent="wVM6VVbsjTtl1nqaAGUt-367" vertex="1">
          <mxGeometry width="167" height="40" as="geometry">
            <mxRectangle width="167" height="40" as="alternateBounds" />
          </mxGeometry>
        </mxCell>
        <mxCell id="wVM6VVbsjTtl1nqaAGUt-369" value="Verb" style="shape=partialRectangle;html=1;whiteSpace=wrap;connectable=0;strokeColor=inherit;overflow=hidden;fillColor=none;top=0;left=0;bottom=0;right=0;pointerEvents=1;fontSize=16;" parent="wVM6VVbsjTtl1nqaAGUt-367" vertex="1">
          <mxGeometry x="167" width="166" height="40" as="geometry">
            <mxRectangle width="166" height="40" as="alternateBounds" />
          </mxGeometry>
        </mxCell>
        <mxCell id="wVM6VVbsjTtl1nqaAGUt-370" value="URL" style="shape=partialRectangle;html=1;whiteSpace=wrap;connectable=0;strokeColor=inherit;overflow=hidden;fillColor=none;top=0;left=0;bottom=0;right=0;pointerEvents=1;fontSize=16;" parent="wVM6VVbsjTtl1nqaAGUt-367" vertex="1">
          <mxGeometry x="333" width="167" height="40" as="geometry">
            <mxRectangle width="167" height="40" as="alternateBounds" />
          </mxGeometry>
        </mxCell>
        <mxCell id="wVM6VVbsjTtl1nqaAGUt-371" value="" style="shape=tableRow;horizontal=0;startSize=0;swimlaneHead=0;swimlaneBody=0;strokeColor=inherit;top=0;left=0;bottom=0;right=0;collapsible=0;dropTarget=0;fillColor=none;points=[[0,0.5],[1,0.5]];portConstraint=eastwest;fontSize=16;" parent="wVM6VVbsjTtl1nqaAGUt-366" vertex="1">
          <mxGeometry y="40" width="500" height="40" as="geometry" />
        </mxCell>
        <mxCell id="wVM6VVbsjTtl1nqaAGUt-372" value="取得餐廳清單頁" style="shape=partialRectangle;html=1;whiteSpace=wrap;connectable=0;strokeColor=inherit;overflow=hidden;fillColor=none;top=0;left=0;bottom=0;right=0;pointerEvents=1;fontSize=16;" parent="wVM6VVbsjTtl1nqaAGUt-371" vertex="1">
          <mxGeometry width="167" height="40" as="geometry">
            <mxRectangle width="167" height="40" as="alternateBounds" />
          </mxGeometry>
        </mxCell>
        <mxCell id="wVM6VVbsjTtl1nqaAGUt-373" value="GET" style="shape=partialRectangle;html=1;whiteSpace=wrap;connectable=0;strokeColor=inherit;overflow=hidden;fillColor=none;top=0;left=0;bottom=0;right=0;pointerEvents=1;fontSize=16;" parent="wVM6VVbsjTtl1nqaAGUt-371" vertex="1">
          <mxGeometry x="167" width="166" height="40" as="geometry">
            <mxRectangle width="166" height="40" as="alternateBounds" />
          </mxGeometry>
        </mxCell>
        <mxCell id="wVM6VVbsjTtl1nqaAGUt-374" value="/restaurants" style="shape=partialRectangle;html=1;whiteSpace=wrap;connectable=0;strokeColor=inherit;overflow=hidden;fillColor=none;top=0;left=0;bottom=0;right=0;pointerEvents=1;fontSize=16;" parent="wVM6VVbsjTtl1nqaAGUt-371" vertex="1">
          <mxGeometry x="333" width="167" height="40" as="geometry">
            <mxRectangle width="167" height="40" as="alternateBounds" />
          </mxGeometry>
        </mxCell>
        <mxCell id="wVM6VVbsjTtl1nqaAGUt-375" value="" style="shape=tableRow;horizontal=0;startSize=0;swimlaneHead=0;swimlaneBody=0;strokeColor=inherit;top=0;left=0;bottom=0;right=0;collapsible=0;dropTarget=0;fillColor=none;points=[[0,0.5],[1,0.5]];portConstraint=eastwest;fontSize=16;" parent="wVM6VVbsjTtl1nqaAGUt-366" vertex="1">
          <mxGeometry y="80" width="500" height="40" as="geometry" />
        </mxCell>
        <mxCell id="wVM6VVbsjTtl1nqaAGUt-376" value="取得餐廳新增頁" style="shape=partialRectangle;html=1;whiteSpace=wrap;connectable=0;strokeColor=inherit;overflow=hidden;fillColor=none;top=0;left=0;bottom=0;right=0;pointerEvents=1;fontSize=16;" parent="wVM6VVbsjTtl1nqaAGUt-375" vertex="1">
          <mxGeometry width="167" height="40" as="geometry">
            <mxRectangle width="167" height="40" as="alternateBounds" />
          </mxGeometry>
        </mxCell>
        <mxCell id="wVM6VVbsjTtl1nqaAGUt-377" value="GET" style="shape=partialRectangle;html=1;whiteSpace=wrap;connectable=0;strokeColor=inherit;overflow=hidden;fillColor=none;top=0;left=0;bottom=0;right=0;pointerEvents=1;fontSize=16;" parent="wVM6VVbsjTtl1nqaAGUt-375" vertex="1">
          <mxGeometry x="167" width="166" height="40" as="geometry">
            <mxRectangle width="166" height="40" as="alternateBounds" />
          </mxGeometry>
        </mxCell>
        <mxCell id="wVM6VVbsjTtl1nqaAGUt-378" value="/restaurants/new" style="shape=partialRectangle;html=1;whiteSpace=wrap;connectable=0;strokeColor=inherit;overflow=hidden;fillColor=none;top=0;left=0;bottom=0;right=0;pointerEvents=1;fontSize=16;" parent="wVM6VVbsjTtl1nqaAGUt-375" vertex="1">
          <mxGeometry x="333" width="167" height="40" as="geometry">
            <mxRectangle width="167" height="40" as="alternateBounds" />
          </mxGeometry>
        </mxCell>
        <mxCell id="wVM6VVbsjTtl1nqaAGUt-379" style="shape=tableRow;horizontal=0;startSize=0;swimlaneHead=0;swimlaneBody=0;strokeColor=inherit;top=0;left=0;bottom=0;right=0;collapsible=0;dropTarget=0;fillColor=none;points=[[0,0.5],[1,0.5]];portConstraint=eastwest;fontSize=16;" parent="wVM6VVbsjTtl1nqaAGUt-366" vertex="1">
          <mxGeometry y="120" width="500" height="40" as="geometry" />
        </mxCell>
        <mxCell id="wVM6VVbsjTtl1nqaAGUt-380" value="取得餐廳檢視頁" style="shape=partialRectangle;html=1;whiteSpace=wrap;connectable=0;strokeColor=inherit;overflow=hidden;fillColor=none;top=0;left=0;bottom=0;right=0;pointerEvents=1;fontSize=16;" parent="wVM6VVbsjTtl1nqaAGUt-379" vertex="1">
          <mxGeometry width="167" height="40" as="geometry">
            <mxRectangle width="167" height="40" as="alternateBounds" />
          </mxGeometry>
        </mxCell>
        <mxCell id="wVM6VVbsjTtl1nqaAGUt-381" value="GET" style="shape=partialRectangle;html=1;whiteSpace=wrap;connectable=0;strokeColor=inherit;overflow=hidden;fillColor=none;top=0;left=0;bottom=0;right=0;pointerEvents=1;fontSize=16;" parent="wVM6VVbsjTtl1nqaAGUt-379" vertex="1">
          <mxGeometry x="167" width="166" height="40" as="geometry">
            <mxRectangle width="166" height="40" as="alternateBounds" />
          </mxGeometry>
        </mxCell>
        <mxCell id="wVM6VVbsjTtl1nqaAGUt-382" value="/restaurants/:id" style="shape=partialRectangle;html=1;whiteSpace=wrap;connectable=0;strokeColor=inherit;overflow=hidden;fillColor=none;top=0;left=0;bottom=0;right=0;pointerEvents=1;fontSize=16;" parent="wVM6VVbsjTtl1nqaAGUt-379" vertex="1">
          <mxGeometry x="333" width="167" height="40" as="geometry">
            <mxRectangle width="167" height="40" as="alternateBounds" />
          </mxGeometry>
        </mxCell>
        <mxCell id="wVM6VVbsjTtl1nqaAGUt-383" style="shape=tableRow;horizontal=0;startSize=0;swimlaneHead=0;swimlaneBody=0;strokeColor=inherit;top=0;left=0;bottom=0;right=0;collapsible=0;dropTarget=0;fillColor=none;points=[[0,0.5],[1,0.5]];portConstraint=eastwest;fontSize=16;" parent="wVM6VVbsjTtl1nqaAGUt-366" vertex="1">
          <mxGeometry y="160" width="500" height="40" as="geometry" />
        </mxCell>
        <mxCell id="wVM6VVbsjTtl1nqaAGUt-384" value="取得餐廳編輯頁" style="shape=partialRectangle;html=1;whiteSpace=wrap;connectable=0;strokeColor=inherit;overflow=hidden;fillColor=none;top=0;left=0;bottom=0;right=0;pointerEvents=1;fontSize=16;" parent="wVM6VVbsjTtl1nqaAGUt-383" vertex="1">
          <mxGeometry width="167" height="40" as="geometry">
            <mxRectangle width="167" height="40" as="alternateBounds" />
          </mxGeometry>
        </mxCell>
        <mxCell id="wVM6VVbsjTtl1nqaAGUt-385" value="GET" style="shape=partialRectangle;html=1;whiteSpace=wrap;connectable=0;strokeColor=inherit;overflow=hidden;fillColor=none;top=0;left=0;bottom=0;right=0;pointerEvents=1;fontSize=16;" parent="wVM6VVbsjTtl1nqaAGUt-383" vertex="1">
          <mxGeometry x="167" width="166" height="40" as="geometry">
            <mxRectangle width="166" height="40" as="alternateBounds" />
          </mxGeometry>
        </mxCell>
        <mxCell id="wVM6VVbsjTtl1nqaAGUt-386" value="/restaurants/:id/edit" style="shape=partialRectangle;html=1;whiteSpace=wrap;connectable=0;strokeColor=inherit;overflow=hidden;fillColor=none;top=0;left=0;bottom=0;right=0;pointerEvents=1;fontSize=16;" parent="wVM6VVbsjTtl1nqaAGUt-383" vertex="1">
          <mxGeometry x="333" width="167" height="40" as="geometry">
            <mxRectangle width="167" height="40" as="alternateBounds" />
          </mxGeometry>
        </mxCell>
        <mxCell id="wVM6VVbsjTtl1nqaAGUt-387" style="shape=tableRow;horizontal=0;startSize=0;swimlaneHead=0;swimlaneBody=0;strokeColor=inherit;top=0;left=0;bottom=0;right=0;collapsible=0;dropTarget=0;fillColor=none;points=[[0,0.5],[1,0.5]];portConstraint=eastwest;fontSize=16;" parent="wVM6VVbsjTtl1nqaAGUt-366" vertex="1">
          <mxGeometry y="200" width="500" height="40" as="geometry" />
        </mxCell>
        <mxCell id="wVM6VVbsjTtl1nqaAGUt-388" value="新增餐廳" style="shape=partialRectangle;html=1;whiteSpace=wrap;connectable=0;strokeColor=inherit;overflow=hidden;fillColor=none;top=0;left=0;bottom=0;right=0;pointerEvents=1;fontSize=16;" parent="wVM6VVbsjTtl1nqaAGUt-387" vertex="1">
          <mxGeometry width="167" height="40" as="geometry">
            <mxRectangle width="167" height="40" as="alternateBounds" />
          </mxGeometry>
        </mxCell>
        <mxCell id="wVM6VVbsjTtl1nqaAGUt-389" value="POST" style="shape=partialRectangle;html=1;whiteSpace=wrap;connectable=0;strokeColor=inherit;overflow=hidden;fillColor=none;top=0;left=0;bottom=0;right=0;pointerEvents=1;fontSize=16;" parent="wVM6VVbsjTtl1nqaAGUt-387" vertex="1">
          <mxGeometry x="167" width="166" height="40" as="geometry">
            <mxRectangle width="166" height="40" as="alternateBounds" />
          </mxGeometry>
        </mxCell>
        <mxCell id="wVM6VVbsjTtl1nqaAGUt-390" value="/restaurants" style="shape=partialRectangle;html=1;whiteSpace=wrap;connectable=0;strokeColor=inherit;overflow=hidden;fillColor=none;top=0;left=0;bottom=0;right=0;pointerEvents=1;fontSize=16;" parent="wVM6VVbsjTtl1nqaAGUt-387" vertex="1">
          <mxGeometry x="333" width="167" height="40" as="geometry">
            <mxRectangle width="167" height="40" as="alternateBounds" />
          </mxGeometry>
        </mxCell>
        <mxCell id="wVM6VVbsjTtl1nqaAGUt-391" style="shape=tableRow;horizontal=0;startSize=0;swimlaneHead=0;swimlaneBody=0;strokeColor=inherit;top=0;left=0;bottom=0;right=0;collapsible=0;dropTarget=0;fillColor=none;points=[[0,0.5],[1,0.5]];portConstraint=eastwest;fontSize=16;" parent="wVM6VVbsjTtl1nqaAGUt-366" vertex="1">
          <mxGeometry y="240" width="500" height="40" as="geometry" />
        </mxCell>
        <mxCell id="wVM6VVbsjTtl1nqaAGUt-392" value="編輯餐廳" style="shape=partialRectangle;html=1;whiteSpace=wrap;connectable=0;strokeColor=inherit;overflow=hidden;fillColor=none;top=0;left=0;bottom=0;right=0;pointerEvents=1;fontSize=16;" parent="wVM6VVbsjTtl1nqaAGUt-391" vertex="1">
          <mxGeometry width="167" height="40" as="geometry">
            <mxRectangle width="167" height="40" as="alternateBounds" />
          </mxGeometry>
        </mxCell>
        <mxCell id="wVM6VVbsjTtl1nqaAGUt-393" value="PUT" style="shape=partialRectangle;html=1;whiteSpace=wrap;connectable=0;strokeColor=inherit;overflow=hidden;fillColor=none;top=0;left=0;bottom=0;right=0;pointerEvents=1;fontSize=16;" parent="wVM6VVbsjTtl1nqaAGUt-391" vertex="1">
          <mxGeometry x="167" width="166" height="40" as="geometry">
            <mxRectangle width="166" height="40" as="alternateBounds" />
          </mxGeometry>
        </mxCell>
        <mxCell id="wVM6VVbsjTtl1nqaAGUt-394" value="/restaurants/:id" style="shape=partialRectangle;html=1;whiteSpace=wrap;connectable=0;strokeColor=inherit;overflow=hidden;fillColor=none;top=0;left=0;bottom=0;right=0;pointerEvents=1;fontSize=16;" parent="wVM6VVbsjTtl1nqaAGUt-391" vertex="1">
          <mxGeometry x="333" width="167" height="40" as="geometry">
            <mxRectangle width="167" height="40" as="alternateBounds" />
          </mxGeometry>
        </mxCell>
        <mxCell id="wVM6VVbsjTtl1nqaAGUt-395" style="shape=tableRow;horizontal=0;startSize=0;swimlaneHead=0;swimlaneBody=0;strokeColor=inherit;top=0;left=0;bottom=0;right=0;collapsible=0;dropTarget=0;fillColor=none;points=[[0,0.5],[1,0.5]];portConstraint=eastwest;fontSize=16;" parent="wVM6VVbsjTtl1nqaAGUt-366" vertex="1">
          <mxGeometry y="280" width="500" height="40" as="geometry" />
        </mxCell>
        <mxCell id="wVM6VVbsjTtl1nqaAGUt-396" value="刪除餐廳" style="shape=partialRectangle;html=1;whiteSpace=wrap;connectable=0;strokeColor=inherit;overflow=hidden;fillColor=none;top=0;left=0;bottom=0;right=0;pointerEvents=1;fontSize=16;" parent="wVM6VVbsjTtl1nqaAGUt-395" vertex="1">
          <mxGeometry width="167" height="40" as="geometry">
            <mxRectangle width="167" height="40" as="alternateBounds" />
          </mxGeometry>
        </mxCell>
        <mxCell id="wVM6VVbsjTtl1nqaAGUt-397" value="DELETE" style="shape=partialRectangle;html=1;whiteSpace=wrap;connectable=0;strokeColor=inherit;overflow=hidden;fillColor=none;top=0;left=0;bottom=0;right=0;pointerEvents=1;fontSize=16;" parent="wVM6VVbsjTtl1nqaAGUt-395" vertex="1">
          <mxGeometry x="167" width="166" height="40" as="geometry">
            <mxRectangle width="166" height="40" as="alternateBounds" />
          </mxGeometry>
        </mxCell>
        <mxCell id="wVM6VVbsjTtl1nqaAGUt-398" value="/restaurants/:id" style="shape=partialRectangle;html=1;whiteSpace=wrap;connectable=0;strokeColor=inherit;overflow=hidden;fillColor=none;top=0;left=0;bottom=0;right=0;pointerEvents=1;fontSize=16;" parent="wVM6VVbsjTtl1nqaAGUt-395" vertex="1">
          <mxGeometry x="333" width="167" height="40" as="geometry">
            <mxRectangle width="167" height="40" as="alternateBounds" />
          </mxGeometry>
        </mxCell>
        <mxCell id="wVM6VVbsjTtl1nqaAGUt-399" value="設計todo list 路由" style="rounded=0;whiteSpace=wrap;html=1;fontSize=16;" parent="1" vertex="1">
          <mxGeometry x="70" y="3770" width="500" height="40" as="geometry" />
        </mxCell>
        <mxCell id="e_DNNsqGoQ1BPr0Qhp8M-1" value="&lt;h3 style=&quot;border-color: var(--border-color); margin: 6px 0px; font-family: &amp;quot;Lato Extended&amp;quot;, Lato, &amp;quot;Helvetica Neue&amp;quot;, Helvetica, Arial, sans-serif; font-weight: normal; line-height: 1.5; text-rendering: optimizelegibility; font-size: 1.5em; color: rgb(45, 59, 69); text-align: start; background-color: rgb(255, 255, 255);&quot;&gt;&lt;strong style=&quot;border-color: var(--border-color);&quot;&gt;功能&lt;/strong&gt;&lt;/h3&gt;&lt;ul style=&quot;border-color: var(--border-color); padding: 0px; margin: 0px 0px 6px 25px; font-family: LatoWeb, &amp;quot;Lato Extended&amp;quot;, Lato, &amp;quot;Helvetica Neue&amp;quot;, Helvetica, Arial, sans-serif; font-size: 16px; text-align: start; background-color: rgb(255, 255, 255);&quot;&gt;&lt;li style=&quot;color: rgb(45, 59, 69); border-color: var(--border-color);&quot;&gt;使用者可以新增一家餐廳&lt;/li&gt;&lt;li style=&quot;color: rgb(45, 59, 69); border-color: var(--border-color);&quot;&gt;使用者可以瀏覽一家餐廳的詳細資訊&lt;/li&gt;&lt;li style=&quot;color: rgb(45, 59, 69); border-color: var(--border-color);&quot;&gt;使用者可以瀏覽全部所有餐廳&lt;/li&gt;&lt;li style=&quot;color: rgb(45, 59, 69); border-color: var(--border-color);&quot;&gt;使用者可以修改一家餐廳的資訊&lt;/li&gt;&lt;li style=&quot;color: rgb(45, 59, 69); border-color: var(--border-color);&quot;&gt;使用者可以刪除一家餐廳&lt;/li&gt;&lt;li style=&quot;border-color: var(--border-color);&quot;&gt;&lt;font color=&quot;#ff0d0d&quot;&gt;使用者可以分類餐廳(新增需求)&lt;/font&gt;&lt;/li&gt;&lt;/ul&gt;" style="rounded=0;whiteSpace=wrap;html=1;" vertex="1" parent="1">
          <mxGeometry x="1654" y="20" width="320" height="170" as="geometry" />
        </mxCell>
        <mxCell id="e_DNNsqGoQ1BPr0Qhp8M-2" value="初始專案" style="rounded=0;whiteSpace=wrap;html=1;fontSize=18;" vertex="1" parent="1">
          <mxGeometry x="80" y="-40" width="1440" height="40" as="geometry" />
        </mxCell>
        <mxCell id="e_DNNsqGoQ1BPr0Qhp8M-3" value="進階專案-1" style="rounded=0;whiteSpace=wrap;html=1;fontSize=18;" vertex="1" parent="1">
          <mxGeometry x="1654" y="-40" width="826" height="40" as="geometry" />
        </mxCell>
        <mxCell id="e_DNNsqGoQ1BPr0Qhp8M-4" value="&lt;h3 style=&quot;border-color: var(--border-color); margin: 6px 0px; font-family: &amp;quot;Lato Extended&amp;quot;, Lato, &amp;quot;Helvetica Neue&amp;quot;, Helvetica, Arial, sans-serif; line-height: 1.5; text-rendering: optimizelegibility; font-size: 1.5em; color: rgb(45, 59, 69); text-align: start; background-color: rgb(255, 255, 255);&quot;&gt;代碼重整與功能改進&lt;/h3&gt;&lt;ul style=&quot;border-color: var(--border-color); padding: 0px; margin: 0px 0px 6px 25px; font-family: LatoWeb, &amp;quot;Lato Extended&amp;quot;, Lato, &amp;quot;Helvetica Neue&amp;quot;, Helvetica, Arial, sans-serif; font-size: 16px; text-align: start; background-color: rgb(255, 255, 255);&quot;&gt;&lt;li&gt;參考 RESTful 設計，運用 HTTP 動詞來讓路由帶有語義&lt;/li&gt;&lt;li&gt;使用 express.Router 獨立路由器，並規劃路由模組&lt;/li&gt;&lt;li style=&quot;color: rgb(45, 59, 69); border-color: var(--border-color);&quot;&gt;網頁增加分頁功能&lt;/li&gt;&lt;li style=&quot;color: rgb(45, 59, 69); border-color: var(--border-color);&quot;&gt;顯示操作成功或是失敗提示&lt;/li&gt;&lt;/ul&gt;" style="rounded=0;whiteSpace=wrap;html=1;" vertex="1" parent="1">
          <mxGeometry x="1990" y="20" width="460" height="170" as="geometry" />
        </mxCell>
        <mxCell id="e_DNNsqGoQ1BPr0Qhp8M-5" value="WireFrame" style="rounded=0;whiteSpace=wrap;html=1;fontSize=18;" vertex="1" parent="1">
          <mxGeometry x="1654" y="230" width="700" height="40" as="geometry" />
        </mxCell>
        <mxCell id="e_DNNsqGoQ1BPr0Qhp8M-6" value="re" style="group" vertex="1" connectable="0" parent="1">
          <mxGeometry x="1654" y="310" width="726" height="620" as="geometry" />
        </mxCell>
        <mxCell id="e_DNNsqGoQ1BPr0Qhp8M-7" value="" style="rounded=0;whiteSpace=wrap;html=1;" vertex="1" parent="e_DNNsqGoQ1BPr0Qhp8M-6">
          <mxGeometry width="680" height="620" as="geometry" />
        </mxCell>
        <mxCell id="e_DNNsqGoQ1BPr0Qhp8M-8" value="" style="rounded=0;whiteSpace=wrap;html=1;fillColor=#f5f5f5;fontColor=#333333;strokeColor=#666666;" vertex="1" parent="e_DNNsqGoQ1BPr0Qhp8M-6">
          <mxGeometry width="680" height="50" as="geometry" />
        </mxCell>
        <mxCell id="e_DNNsqGoQ1BPr0Qhp8M-9" value="Restaurant List" style="text;html=1;strokeColor=none;fillColor=none;align=center;verticalAlign=middle;whiteSpace=wrap;rounded=0;fontSize=15;fontStyle=1" vertex="1" parent="e_DNNsqGoQ1BPr0Qhp8M-6">
          <mxGeometry x="10" y="10" width="130" height="30" as="geometry" />
        </mxCell>
        <mxCell id="e_DNNsqGoQ1BPr0Qhp8M-10" value="" style="rounded=0;whiteSpace=wrap;html=1;align=left;fontColor=#999999;" vertex="1" parent="e_DNNsqGoQ1BPr0Qhp8M-6">
          <mxGeometry x="68.5" y="90" width="381.5" height="20" as="geometry" />
        </mxCell>
        <mxCell id="e_DNNsqGoQ1BPr0Qhp8M-11" value="search" style="rounded=1;whiteSpace=wrap;html=1;" vertex="1" parent="e_DNNsqGoQ1BPr0Qhp8M-6">
          <mxGeometry x="466" y="90" width="50" height="20" as="geometry" />
        </mxCell>
        <mxCell id="e_DNNsqGoQ1BPr0Qhp8M-12" value="Add a new restaurant" style="rounded=1;whiteSpace=wrap;html=1;" vertex="1" parent="e_DNNsqGoQ1BPr0Qhp8M-6">
          <mxGeometry x="546" y="15" width="120" height="20" as="geometry" />
        </mxCell>
        <mxCell id="e_DNNsqGoQ1BPr0Qhp8M-13" value="Detail" style="text;html=1;strokeColor=none;fillColor=none;align=center;verticalAlign=middle;whiteSpace=wrap;rounded=0;fontStyle=4;fontSize=10;" vertex="1" parent="e_DNNsqGoQ1BPr0Qhp8M-6">
          <mxGeometry x="139.5" y="310" width="60" height="30" as="geometry" />
        </mxCell>
        <mxCell id="e_DNNsqGoQ1BPr0Qhp8M-14" value="Edit" style="text;html=1;strokeColor=none;fillColor=none;align=center;verticalAlign=middle;whiteSpace=wrap;rounded=0;fontStyle=4;fontSize=10;" vertex="1" parent="e_DNNsqGoQ1BPr0Qhp8M-6">
          <mxGeometry x="110.5" y="310" width="60" height="30" as="geometry" />
        </mxCell>
        <mxCell id="e_DNNsqGoQ1BPr0Qhp8M-15" value="" style="rounded=0;whiteSpace=wrap;html=1;" vertex="1" parent="e_DNNsqGoQ1BPr0Qhp8M-6">
          <mxGeometry x="68.5" y="160" width="160" height="100" as="geometry" />
        </mxCell>
        <mxCell id="e_DNNsqGoQ1BPr0Qhp8M-16" value="" style="endArrow=none;html=1;rounded=0;entryX=1;entryY=0;entryDx=0;entryDy=0;exitX=0;exitY=1;exitDx=0;exitDy=0;" edge="1" parent="e_DNNsqGoQ1BPr0Qhp8M-6" source="e_DNNsqGoQ1BPr0Qhp8M-15" target="e_DNNsqGoQ1BPr0Qhp8M-15">
          <mxGeometry width="50" height="50" relative="1" as="geometry">
            <mxPoint x="-21.5" y="390" as="sourcePoint" />
            <mxPoint x="28.5" y="340" as="targetPoint" />
          </mxGeometry>
        </mxCell>
        <mxCell id="e_DNNsqGoQ1BPr0Qhp8M-17" value="" style="endArrow=none;html=1;rounded=0;entryX=0;entryY=0;entryDx=0;entryDy=0;exitX=1;exitY=1;exitDx=0;exitDy=0;" edge="1" parent="e_DNNsqGoQ1BPr0Qhp8M-6" source="e_DNNsqGoQ1BPr0Qhp8M-15" target="e_DNNsqGoQ1BPr0Qhp8M-15">
          <mxGeometry width="50" height="50" relative="1" as="geometry">
            <mxPoint x="-21.5" y="390" as="sourcePoint" />
            <mxPoint x="28.5" y="340" as="targetPoint" />
          </mxGeometry>
        </mxCell>
        <mxCell id="e_DNNsqGoQ1BPr0Qhp8M-18" value="restaurant name" style="rounded=0;whiteSpace=wrap;html=1;align=left;verticalAlign=top;" vertex="1" parent="e_DNNsqGoQ1BPr0Qhp8M-6">
          <mxGeometry x="68.5" y="260" width="160" height="50" as="geometry" />
        </mxCell>
        <mxCell id="e_DNNsqGoQ1BPr0Qhp8M-19" value="Delete" style="rounded=0;whiteSpace=wrap;html=1;fontSize=10;" vertex="1" parent="e_DNNsqGoQ1BPr0Qhp8M-6">
          <mxGeometry x="188.5" y="315" width="40" height="20" as="geometry" />
        </mxCell>
        <mxCell id="e_DNNsqGoQ1BPr0Qhp8M-20" value="Detail" style="text;html=1;strokeColor=none;fillColor=none;align=center;verticalAlign=middle;whiteSpace=wrap;rounded=0;fontStyle=4;fontSize=10;" vertex="1" parent="e_DNNsqGoQ1BPr0Qhp8M-6">
          <mxGeometry x="332.5" y="310" width="60" height="30" as="geometry" />
        </mxCell>
        <mxCell id="e_DNNsqGoQ1BPr0Qhp8M-21" value="Edit" style="text;html=1;strokeColor=none;fillColor=none;align=center;verticalAlign=middle;whiteSpace=wrap;rounded=0;fontStyle=4;fontSize=10;" vertex="1" parent="e_DNNsqGoQ1BPr0Qhp8M-6">
          <mxGeometry x="303.5" y="310" width="60" height="30" as="geometry" />
        </mxCell>
        <mxCell id="e_DNNsqGoQ1BPr0Qhp8M-22" value="" style="rounded=0;whiteSpace=wrap;html=1;" vertex="1" parent="e_DNNsqGoQ1BPr0Qhp8M-6">
          <mxGeometry x="261.5" y="160" width="160" height="100" as="geometry" />
        </mxCell>
        <mxCell id="e_DNNsqGoQ1BPr0Qhp8M-23" value="" style="endArrow=none;html=1;rounded=0;entryX=1;entryY=0;entryDx=0;entryDy=0;exitX=0;exitY=1;exitDx=0;exitDy=0;" edge="1" parent="e_DNNsqGoQ1BPr0Qhp8M-6" source="e_DNNsqGoQ1BPr0Qhp8M-22" target="e_DNNsqGoQ1BPr0Qhp8M-22">
          <mxGeometry width="50" height="50" relative="1" as="geometry">
            <mxPoint x="171.5" y="390" as="sourcePoint" />
            <mxPoint x="221.5" y="340" as="targetPoint" />
          </mxGeometry>
        </mxCell>
        <mxCell id="e_DNNsqGoQ1BPr0Qhp8M-24" value="" style="endArrow=none;html=1;rounded=0;entryX=0;entryY=0;entryDx=0;entryDy=0;exitX=1;exitY=1;exitDx=0;exitDy=0;" edge="1" parent="e_DNNsqGoQ1BPr0Qhp8M-6" source="e_DNNsqGoQ1BPr0Qhp8M-22" target="e_DNNsqGoQ1BPr0Qhp8M-22">
          <mxGeometry width="50" height="50" relative="1" as="geometry">
            <mxPoint x="171.5" y="390" as="sourcePoint" />
            <mxPoint x="221.5" y="340" as="targetPoint" />
          </mxGeometry>
        </mxCell>
        <mxCell id="e_DNNsqGoQ1BPr0Qhp8M-25" value="restaurant name" style="rounded=0;whiteSpace=wrap;html=1;align=left;verticalAlign=top;" vertex="1" parent="e_DNNsqGoQ1BPr0Qhp8M-6">
          <mxGeometry x="261.5" y="260" width="160" height="50" as="geometry" />
        </mxCell>
        <mxCell id="e_DNNsqGoQ1BPr0Qhp8M-26" value="Delete" style="rounded=0;whiteSpace=wrap;html=1;fontSize=10;" vertex="1" parent="e_DNNsqGoQ1BPr0Qhp8M-6">
          <mxGeometry x="381.5" y="315" width="40" height="20" as="geometry" />
        </mxCell>
        <mxCell id="e_DNNsqGoQ1BPr0Qhp8M-27" value="Detail" style="text;html=1;strokeColor=none;fillColor=none;align=center;verticalAlign=middle;whiteSpace=wrap;rounded=0;fontStyle=4;fontSize=10;" vertex="1" parent="e_DNNsqGoQ1BPr0Qhp8M-6">
          <mxGeometry x="522.5" y="310" width="60" height="30" as="geometry" />
        </mxCell>
        <mxCell id="e_DNNsqGoQ1BPr0Qhp8M-28" value="Edit" style="text;html=1;strokeColor=none;fillColor=none;align=center;verticalAlign=middle;whiteSpace=wrap;rounded=0;fontStyle=4;fontSize=10;" vertex="1" parent="e_DNNsqGoQ1BPr0Qhp8M-6">
          <mxGeometry x="493.5" y="310" width="60" height="30" as="geometry" />
        </mxCell>
        <mxCell id="e_DNNsqGoQ1BPr0Qhp8M-29" value="" style="rounded=0;whiteSpace=wrap;html=1;" vertex="1" parent="e_DNNsqGoQ1BPr0Qhp8M-6">
          <mxGeometry x="451.5" y="160" width="160" height="100" as="geometry" />
        </mxCell>
        <mxCell id="e_DNNsqGoQ1BPr0Qhp8M-30" value="" style="endArrow=none;html=1;rounded=0;entryX=1;entryY=0;entryDx=0;entryDy=0;exitX=0;exitY=1;exitDx=0;exitDy=0;" edge="1" parent="e_DNNsqGoQ1BPr0Qhp8M-6" source="e_DNNsqGoQ1BPr0Qhp8M-29" target="e_DNNsqGoQ1BPr0Qhp8M-29">
          <mxGeometry width="50" height="50" relative="1" as="geometry">
            <mxPoint x="361.5" y="390" as="sourcePoint" />
            <mxPoint x="411.5" y="340" as="targetPoint" />
          </mxGeometry>
        </mxCell>
        <mxCell id="e_DNNsqGoQ1BPr0Qhp8M-31" value="" style="endArrow=none;html=1;rounded=0;entryX=0;entryY=0;entryDx=0;entryDy=0;exitX=1;exitY=1;exitDx=0;exitDy=0;" edge="1" parent="e_DNNsqGoQ1BPr0Qhp8M-6" source="e_DNNsqGoQ1BPr0Qhp8M-29" target="e_DNNsqGoQ1BPr0Qhp8M-29">
          <mxGeometry width="50" height="50" relative="1" as="geometry">
            <mxPoint x="361.5" y="390" as="sourcePoint" />
            <mxPoint x="411.5" y="340" as="targetPoint" />
          </mxGeometry>
        </mxCell>
        <mxCell id="e_DNNsqGoQ1BPr0Qhp8M-32" value="restaurant name" style="rounded=0;whiteSpace=wrap;html=1;align=left;verticalAlign=top;" vertex="1" parent="e_DNNsqGoQ1BPr0Qhp8M-6">
          <mxGeometry x="451.5" y="260" width="160" height="50" as="geometry" />
        </mxCell>
        <mxCell id="e_DNNsqGoQ1BPr0Qhp8M-33" value="Delete" style="rounded=0;whiteSpace=wrap;html=1;fontSize=10;" vertex="1" parent="e_DNNsqGoQ1BPr0Qhp8M-6">
          <mxGeometry x="571.5" y="315" width="40" height="20" as="geometry" />
        </mxCell>
        <mxCell id="e_DNNsqGoQ1BPr0Qhp8M-34" value="Detail" style="text;html=1;strokeColor=none;fillColor=none;align=center;verticalAlign=middle;whiteSpace=wrap;rounded=0;fontStyle=4;fontSize=10;" vertex="1" parent="e_DNNsqGoQ1BPr0Qhp8M-6">
          <mxGeometry x="139.5" y="500" width="60" height="30" as="geometry" />
        </mxCell>
        <mxCell id="e_DNNsqGoQ1BPr0Qhp8M-35" value="Edit" style="text;html=1;strokeColor=none;fillColor=none;align=center;verticalAlign=middle;whiteSpace=wrap;rounded=0;fontStyle=4;fontSize=10;" vertex="1" parent="e_DNNsqGoQ1BPr0Qhp8M-6">
          <mxGeometry x="110.5" y="500" width="60" height="30" as="geometry" />
        </mxCell>
        <mxCell id="e_DNNsqGoQ1BPr0Qhp8M-36" value="" style="rounded=0;whiteSpace=wrap;html=1;" vertex="1" parent="e_DNNsqGoQ1BPr0Qhp8M-6">
          <mxGeometry x="68.5" y="350" width="160" height="100" as="geometry" />
        </mxCell>
        <mxCell id="e_DNNsqGoQ1BPr0Qhp8M-37" value="" style="endArrow=none;html=1;rounded=0;entryX=1;entryY=0;entryDx=0;entryDy=0;exitX=0;exitY=1;exitDx=0;exitDy=0;" edge="1" parent="e_DNNsqGoQ1BPr0Qhp8M-6" source="e_DNNsqGoQ1BPr0Qhp8M-36" target="e_DNNsqGoQ1BPr0Qhp8M-36">
          <mxGeometry width="50" height="50" relative="1" as="geometry">
            <mxPoint x="-21.5" y="580" as="sourcePoint" />
            <mxPoint x="28.5" y="530" as="targetPoint" />
          </mxGeometry>
        </mxCell>
        <mxCell id="e_DNNsqGoQ1BPr0Qhp8M-38" value="" style="endArrow=none;html=1;rounded=0;entryX=0;entryY=0;entryDx=0;entryDy=0;exitX=1;exitY=1;exitDx=0;exitDy=0;" edge="1" parent="e_DNNsqGoQ1BPr0Qhp8M-6" source="e_DNNsqGoQ1BPr0Qhp8M-36" target="e_DNNsqGoQ1BPr0Qhp8M-36">
          <mxGeometry width="50" height="50" relative="1" as="geometry">
            <mxPoint x="-21.5" y="580" as="sourcePoint" />
            <mxPoint x="28.5" y="530" as="targetPoint" />
          </mxGeometry>
        </mxCell>
        <mxCell id="e_DNNsqGoQ1BPr0Qhp8M-39" value="restaurant name" style="rounded=0;whiteSpace=wrap;html=1;align=left;verticalAlign=top;" vertex="1" parent="e_DNNsqGoQ1BPr0Qhp8M-6">
          <mxGeometry x="68.5" y="450" width="160" height="50" as="geometry" />
        </mxCell>
        <mxCell id="e_DNNsqGoQ1BPr0Qhp8M-40" value="Delete" style="rounded=0;whiteSpace=wrap;html=1;fontSize=10;" vertex="1" parent="e_DNNsqGoQ1BPr0Qhp8M-6">
          <mxGeometry x="188.5" y="505" width="40" height="20" as="geometry" />
        </mxCell>
        <mxCell id="e_DNNsqGoQ1BPr0Qhp8M-41" value="Detail" style="text;html=1;strokeColor=none;fillColor=none;align=center;verticalAlign=middle;whiteSpace=wrap;rounded=0;fontStyle=4;fontSize=10;" vertex="1" parent="e_DNNsqGoQ1BPr0Qhp8M-6">
          <mxGeometry x="332.5" y="500" width="60" height="30" as="geometry" />
        </mxCell>
        <mxCell id="e_DNNsqGoQ1BPr0Qhp8M-42" value="Edit" style="text;html=1;strokeColor=none;fillColor=none;align=center;verticalAlign=middle;whiteSpace=wrap;rounded=0;fontStyle=4;fontSize=10;" vertex="1" parent="e_DNNsqGoQ1BPr0Qhp8M-6">
          <mxGeometry x="303.5" y="500" width="60" height="30" as="geometry" />
        </mxCell>
        <mxCell id="e_DNNsqGoQ1BPr0Qhp8M-43" value="" style="rounded=0;whiteSpace=wrap;html=1;" vertex="1" parent="e_DNNsqGoQ1BPr0Qhp8M-6">
          <mxGeometry x="261.5" y="350" width="160" height="100" as="geometry" />
        </mxCell>
        <mxCell id="e_DNNsqGoQ1BPr0Qhp8M-44" value="" style="endArrow=none;html=1;rounded=0;entryX=1;entryY=0;entryDx=0;entryDy=0;exitX=0;exitY=1;exitDx=0;exitDy=0;" edge="1" parent="e_DNNsqGoQ1BPr0Qhp8M-6" source="e_DNNsqGoQ1BPr0Qhp8M-43" target="e_DNNsqGoQ1BPr0Qhp8M-43">
          <mxGeometry width="50" height="50" relative="1" as="geometry">
            <mxPoint x="171.5" y="580" as="sourcePoint" />
            <mxPoint x="221.5" y="530" as="targetPoint" />
          </mxGeometry>
        </mxCell>
        <mxCell id="e_DNNsqGoQ1BPr0Qhp8M-45" value="" style="endArrow=none;html=1;rounded=0;entryX=0;entryY=0;entryDx=0;entryDy=0;exitX=1;exitY=1;exitDx=0;exitDy=0;" edge="1" parent="e_DNNsqGoQ1BPr0Qhp8M-6" source="e_DNNsqGoQ1BPr0Qhp8M-43" target="e_DNNsqGoQ1BPr0Qhp8M-43">
          <mxGeometry width="50" height="50" relative="1" as="geometry">
            <mxPoint x="171.5" y="580" as="sourcePoint" />
            <mxPoint x="221.5" y="530" as="targetPoint" />
          </mxGeometry>
        </mxCell>
        <mxCell id="e_DNNsqGoQ1BPr0Qhp8M-46" value="restaurant name" style="rounded=0;whiteSpace=wrap;html=1;align=left;verticalAlign=top;" vertex="1" parent="e_DNNsqGoQ1BPr0Qhp8M-6">
          <mxGeometry x="261.5" y="450" width="160" height="50" as="geometry" />
        </mxCell>
        <mxCell id="e_DNNsqGoQ1BPr0Qhp8M-47" value="Delete" style="rounded=0;whiteSpace=wrap;html=1;fontSize=10;" vertex="1" parent="e_DNNsqGoQ1BPr0Qhp8M-6">
          <mxGeometry x="381.5" y="505" width="40" height="20" as="geometry" />
        </mxCell>
        <mxCell id="e_DNNsqGoQ1BPr0Qhp8M-48" value="Detail" style="text;html=1;strokeColor=none;fillColor=none;align=center;verticalAlign=middle;whiteSpace=wrap;rounded=0;fontStyle=4;fontSize=10;" vertex="1" parent="e_DNNsqGoQ1BPr0Qhp8M-6">
          <mxGeometry x="522.5" y="500" width="60" height="30" as="geometry" />
        </mxCell>
        <mxCell id="e_DNNsqGoQ1BPr0Qhp8M-49" value="Edit" style="text;html=1;strokeColor=none;fillColor=none;align=center;verticalAlign=middle;whiteSpace=wrap;rounded=0;fontStyle=4;fontSize=10;" vertex="1" parent="e_DNNsqGoQ1BPr0Qhp8M-6">
          <mxGeometry x="493.5" y="500" width="60" height="30" as="geometry" />
        </mxCell>
        <mxCell id="e_DNNsqGoQ1BPr0Qhp8M-50" value="" style="rounded=0;whiteSpace=wrap;html=1;" vertex="1" parent="e_DNNsqGoQ1BPr0Qhp8M-6">
          <mxGeometry x="451.5" y="350" width="160" height="100" as="geometry" />
        </mxCell>
        <mxCell id="e_DNNsqGoQ1BPr0Qhp8M-51" value="" style="endArrow=none;html=1;rounded=0;entryX=1;entryY=0;entryDx=0;entryDy=0;exitX=0;exitY=1;exitDx=0;exitDy=0;" edge="1" parent="e_DNNsqGoQ1BPr0Qhp8M-6" source="e_DNNsqGoQ1BPr0Qhp8M-50" target="e_DNNsqGoQ1BPr0Qhp8M-50">
          <mxGeometry width="50" height="50" relative="1" as="geometry">
            <mxPoint x="361.5" y="580" as="sourcePoint" />
            <mxPoint x="411.5" y="530" as="targetPoint" />
          </mxGeometry>
        </mxCell>
        <mxCell id="e_DNNsqGoQ1BPr0Qhp8M-52" value="" style="endArrow=none;html=1;rounded=0;entryX=0;entryY=0;entryDx=0;entryDy=0;exitX=1;exitY=1;exitDx=0;exitDy=0;" edge="1" parent="e_DNNsqGoQ1BPr0Qhp8M-6" source="e_DNNsqGoQ1BPr0Qhp8M-50" target="e_DNNsqGoQ1BPr0Qhp8M-50">
          <mxGeometry width="50" height="50" relative="1" as="geometry">
            <mxPoint x="361.5" y="580" as="sourcePoint" />
            <mxPoint x="411.5" y="530" as="targetPoint" />
          </mxGeometry>
        </mxCell>
        <mxCell id="e_DNNsqGoQ1BPr0Qhp8M-53" value="restaurant name" style="rounded=0;whiteSpace=wrap;html=1;align=left;verticalAlign=top;" vertex="1" parent="e_DNNsqGoQ1BPr0Qhp8M-6">
          <mxGeometry x="451.5" y="450" width="160" height="50" as="geometry" />
        </mxCell>
        <mxCell id="e_DNNsqGoQ1BPr0Qhp8M-54" value="Delete" style="rounded=0;whiteSpace=wrap;html=1;fontSize=10;" vertex="1" parent="e_DNNsqGoQ1BPr0Qhp8M-6">
          <mxGeometry x="571.5" y="505" width="40" height="20" as="geometry" />
        </mxCell>
        <mxCell id="e_DNNsqGoQ1BPr0Qhp8M-61" value="prev" style="rounded=0;whiteSpace=wrap;html=1;" vertex="1" parent="e_DNNsqGoQ1BPr0Qhp8M-6">
          <mxGeometry x="223.5" y="560" width="71.5" height="20" as="geometry" />
        </mxCell>
        <mxCell id="e_DNNsqGoQ1BPr0Qhp8M-62" value="next" style="rounded=0;whiteSpace=wrap;html=1;" vertex="1" parent="e_DNNsqGoQ1BPr0Qhp8M-6">
          <mxGeometry x="342" y="560" width="71.5" height="20" as="geometry" />
        </mxCell>
        <mxCell id="e_DNNsqGoQ1BPr0Qhp8M-63" value="目前第1頁" style="text;html=1;strokeColor=none;fillColor=none;align=center;verticalAlign=middle;whiteSpace=wrap;rounded=0;" vertex="1" parent="e_DNNsqGoQ1BPr0Qhp8M-6">
          <mxGeometry x="433.5" y="555" width="60" height="30" as="geometry" />
        </mxCell>
        <mxCell id="e_DNNsqGoQ1BPr0Qhp8M-56" value="Sort&amp;nbsp;▼" style="rounded=1;whiteSpace=wrap;html=1;" vertex="1" parent="1">
          <mxGeometry x="2270" y="400" width="60" height="20" as="geometry" />
        </mxCell>
        <mxCell id="e_DNNsqGoQ1BPr0Qhp8M-57" value="A-&amp;gt;Z&lt;br&gt;Z-&amp;gt;A&lt;br&gt;類別&lt;br&gt;地區" style="rounded=0;whiteSpace=wrap;html=1;" vertex="1" parent="1">
          <mxGeometry x="2270" y="420" width="60" height="60" as="geometry" />
        </mxCell>
        <mxCell id="e_DNNsqGoQ1BPr0Qhp8M-64" value="進階專案-2" style="rounded=0;whiteSpace=wrap;html=1;fontSize=18;" vertex="1" parent="1">
          <mxGeometry x="2550" y="-40" width="910" height="40" as="geometry" />
        </mxCell>
        <mxCell id="e_DNNsqGoQ1BPr0Qhp8M-65" value="&lt;h3 style=&quot;border-color: var(--border-color); margin: 6px 0px; font-family: &amp;quot;Lato Extended&amp;quot;, Lato, &amp;quot;Helvetica Neue&amp;quot;, Helvetica, Arial, sans-serif; line-height: 1.5; text-rendering: optimizelegibility; font-size: 1.5em; color: rgb(45, 59, 69); text-align: start; background-color: rgb(255, 255, 255);&quot;&gt;使用者認證系統規格&lt;/h3&gt;&lt;ul style=&quot;border-color: var(--border-color); padding: 0px; margin: 0px 0px 6px 25px; font-family: LatoWeb, &amp;quot;Lato Extended&amp;quot;, Lato, &amp;quot;Helvetica Neue&amp;quot;, Helvetica, Arial, sans-serif; font-size: 16px; text-align: start; background-color: rgb(255, 255, 255);&quot;&gt;&lt;li&gt;使用者可以註冊帳號，註冊的資料包括：名字、email、密碼、確認密碼。&lt;br&gt;&lt;/li&gt;&lt;ul&gt;&lt;li&gt;其中 email 與密碼是必填欄位，但名字不是。&lt;/li&gt;&lt;li&gt;如果使用者已經註冊過、沒填寫必填欄位、或是密碼輸入錯誤，就註冊失敗，並回應給使用者錯誤訊息。&lt;/li&gt;&lt;/ul&gt;&lt;li&gt;使用者也可以透過 Facebook Login 直接登入。&lt;/li&gt;&lt;li&gt;使用者的密碼要使用 bcrypt 來處理&lt;/li&gt;&lt;li&gt;使用者必須登入才能使用餐廳清單，&lt;ul style=&quot;padding: 0px; margin: 0px 0px 0px 25px;&quot;&gt;&lt;li&gt;如果沒登入，會被導向登入頁面&lt;/li&gt;&lt;li&gt;登入後，使用者可以建立並管理專屬他的一個餐廳清單&lt;/li&gt;&lt;/ul&gt;&lt;/li&gt;&lt;li&gt;使用者登出、註冊失敗、或登入失敗時，使用者都會在畫面上看到正確而清楚的系統訊息&lt;/li&gt;&lt;/ul&gt;" style="rounded=0;whiteSpace=wrap;html=1;" vertex="1" parent="1">
          <mxGeometry x="2550" y="280" width="820" height="230" as="geometry" />
        </mxCell>
        <mxCell id="e_DNNsqGoQ1BPr0Qhp8M-66" value="User Story 新增需求(2023.9.8)" style="shape=table;startSize=30;container=1;collapsible=0;childLayout=tableLayout;fixedRows=1;rowLines=0;fontStyle=0;strokeColor=default;fontSize=16;" vertex="1" parent="1">
          <mxGeometry x="2550" y="20" width="360" height="240" as="geometry" />
        </mxCell>
        <mxCell id="e_DNNsqGoQ1BPr0Qhp8M-67" style="shape=tableRow;horizontal=0;startSize=0;swimlaneHead=0;swimlaneBody=0;top=0;left=0;bottom=0;right=0;collapsible=0;dropTarget=0;fillColor=none;points=[[0,0.5],[1,0.5]];portConstraint=eastwest;strokeColor=inherit;fontSize=16;" vertex="1" parent="e_DNNsqGoQ1BPr0Qhp8M-66">
          <mxGeometry y="30" width="360" height="30" as="geometry" />
        </mxCell>
        <mxCell id="e_DNNsqGoQ1BPr0Qhp8M-68" value="No." style="shape=partialRectangle;html=1;whiteSpace=wrap;connectable=0;fillColor=none;top=0;left=0;bottom=0;right=0;overflow=hidden;pointerEvents=1;strokeColor=inherit;fontSize=16;" vertex="1" parent="e_DNNsqGoQ1BPr0Qhp8M-67">
          <mxGeometry width="38" height="30" as="geometry">
            <mxRectangle width="38" height="30" as="alternateBounds" />
          </mxGeometry>
        </mxCell>
        <mxCell id="e_DNNsqGoQ1BPr0Qhp8M-69" value="項目" style="shape=partialRectangle;html=1;whiteSpace=wrap;connectable=0;fillColor=none;top=0;left=0;bottom=0;right=0;align=left;spacingLeft=6;overflow=hidden;strokeColor=inherit;fontSize=16;" vertex="1" parent="e_DNNsqGoQ1BPr0Qhp8M-67">
          <mxGeometry x="38" width="322" height="30" as="geometry">
            <mxRectangle width="322" height="30" as="alternateBounds" />
          </mxGeometry>
        </mxCell>
        <mxCell id="e_DNNsqGoQ1BPr0Qhp8M-70" style="shape=tableRow;horizontal=0;startSize=0;swimlaneHead=0;swimlaneBody=0;top=0;left=0;bottom=0;right=0;collapsible=0;dropTarget=0;fillColor=none;points=[[0,0.5],[1,0.5]];portConstraint=eastwest;strokeColor=inherit;fontSize=16;" vertex="1" parent="e_DNNsqGoQ1BPr0Qhp8M-66">
          <mxGeometry y="60" width="360" height="30" as="geometry" />
        </mxCell>
        <mxCell id="e_DNNsqGoQ1BPr0Qhp8M-71" value="1" style="shape=partialRectangle;html=1;whiteSpace=wrap;connectable=0;fillColor=none;top=0;left=0;bottom=0;right=0;overflow=hidden;strokeColor=inherit;fontSize=16;" vertex="1" parent="e_DNNsqGoQ1BPr0Qhp8M-70">
          <mxGeometry width="38" height="30" as="geometry">
            <mxRectangle width="38" height="30" as="alternateBounds" />
          </mxGeometry>
        </mxCell>
        <mxCell id="e_DNNsqGoQ1BPr0Qhp8M-72" value="使用者可以註冊新帳號" style="shape=partialRectangle;html=1;whiteSpace=wrap;connectable=0;fillColor=none;top=0;left=0;bottom=0;right=0;align=left;spacingLeft=6;overflow=hidden;strokeColor=inherit;fontSize=16;" vertex="1" parent="e_DNNsqGoQ1BPr0Qhp8M-70">
          <mxGeometry x="38" width="322" height="30" as="geometry">
            <mxRectangle width="322" height="30" as="alternateBounds" />
          </mxGeometry>
        </mxCell>
        <mxCell id="e_DNNsqGoQ1BPr0Qhp8M-73" style="shape=tableRow;horizontal=0;startSize=0;swimlaneHead=0;swimlaneBody=0;top=0;left=0;bottom=0;right=0;collapsible=0;dropTarget=0;fillColor=none;points=[[0,0.5],[1,0.5]];portConstraint=eastwest;strokeColor=inherit;fontSize=16;" vertex="1" parent="e_DNNsqGoQ1BPr0Qhp8M-66">
          <mxGeometry y="90" width="360" height="30" as="geometry" />
        </mxCell>
        <mxCell id="e_DNNsqGoQ1BPr0Qhp8M-74" value="2" style="shape=partialRectangle;html=1;whiteSpace=wrap;connectable=0;fillColor=none;top=0;left=0;bottom=0;right=0;overflow=hidden;strokeColor=inherit;fontSize=16;" vertex="1" parent="e_DNNsqGoQ1BPr0Qhp8M-73">
          <mxGeometry width="38" height="30" as="geometry">
            <mxRectangle width="38" height="30" as="alternateBounds" />
          </mxGeometry>
        </mxCell>
        <mxCell id="e_DNNsqGoQ1BPr0Qhp8M-75" value="使用者可以登出/登入" style="shape=partialRectangle;html=1;whiteSpace=wrap;connectable=0;fillColor=none;top=0;left=0;bottom=0;right=0;align=left;spacingLeft=6;overflow=hidden;strokeColor=inherit;fontSize=16;" vertex="1" parent="e_DNNsqGoQ1BPr0Qhp8M-73">
          <mxGeometry x="38" width="322" height="30" as="geometry">
            <mxRectangle width="322" height="30" as="alternateBounds" />
          </mxGeometry>
        </mxCell>
        <mxCell id="e_DNNsqGoQ1BPr0Qhp8M-76" style="shape=tableRow;horizontal=0;startSize=0;swimlaneHead=0;swimlaneBody=0;top=0;left=0;bottom=0;right=0;collapsible=0;dropTarget=0;fillColor=none;points=[[0,0.5],[1,0.5]];portConstraint=eastwest;strokeColor=inherit;fontSize=16;" vertex="1" parent="e_DNNsqGoQ1BPr0Qhp8M-66">
          <mxGeometry y="120" width="360" height="30" as="geometry" />
        </mxCell>
        <mxCell id="e_DNNsqGoQ1BPr0Qhp8M-77" value="3" style="shape=partialRectangle;html=1;whiteSpace=wrap;connectable=0;fillColor=none;top=0;left=0;bottom=0;right=0;overflow=hidden;strokeColor=inherit;fontSize=16;" vertex="1" parent="e_DNNsqGoQ1BPr0Qhp8M-76">
          <mxGeometry width="38" height="30" as="geometry">
            <mxRectangle width="38" height="30" as="alternateBounds" />
          </mxGeometry>
        </mxCell>
        <mxCell id="e_DNNsqGoQ1BPr0Qhp8M-78" value="未登入的使用者需要導回登入頁" style="shape=partialRectangle;html=1;whiteSpace=wrap;connectable=0;fillColor=none;top=0;left=0;bottom=0;right=0;align=left;spacingLeft=6;overflow=hidden;strokeColor=inherit;fontSize=16;" vertex="1" parent="e_DNNsqGoQ1BPr0Qhp8M-76">
          <mxGeometry x="38" width="322" height="30" as="geometry">
            <mxRectangle width="322" height="30" as="alternateBounds" />
          </mxGeometry>
        </mxCell>
        <mxCell id="e_DNNsqGoQ1BPr0Qhp8M-79" style="shape=tableRow;horizontal=0;startSize=0;swimlaneHead=0;swimlaneBody=0;top=0;left=0;bottom=0;right=0;collapsible=0;dropTarget=0;fillColor=none;points=[[0,0.5],[1,0.5]];portConstraint=eastwest;strokeColor=inherit;fontSize=16;" vertex="1" parent="e_DNNsqGoQ1BPr0Qhp8M-66">
          <mxGeometry y="150" width="360" height="30" as="geometry" />
        </mxCell>
        <mxCell id="e_DNNsqGoQ1BPr0Qhp8M-80" value="4" style="shape=partialRectangle;html=1;whiteSpace=wrap;connectable=0;fillColor=none;top=0;left=0;bottom=0;right=0;overflow=hidden;strokeColor=inherit;fontSize=16;" vertex="1" parent="e_DNNsqGoQ1BPr0Qhp8M-79">
          <mxGeometry width="38" height="30" as="geometry">
            <mxRectangle width="38" height="30" as="alternateBounds" />
          </mxGeometry>
        </mxCell>
        <mxCell id="e_DNNsqGoQ1BPr0Qhp8M-81" value="使用者僅能操作自己的todos" style="shape=partialRectangle;html=1;whiteSpace=wrap;connectable=0;fillColor=none;top=0;left=0;bottom=0;right=0;align=left;spacingLeft=6;overflow=hidden;strokeColor=inherit;fontSize=16;" vertex="1" parent="e_DNNsqGoQ1BPr0Qhp8M-79">
          <mxGeometry x="38" width="322" height="30" as="geometry">
            <mxRectangle width="322" height="30" as="alternateBounds" />
          </mxGeometry>
        </mxCell>
        <mxCell id="e_DNNsqGoQ1BPr0Qhp8M-82" style="shape=tableRow;horizontal=0;startSize=0;swimlaneHead=0;swimlaneBody=0;top=0;left=0;bottom=0;right=0;collapsible=0;dropTarget=0;fillColor=none;points=[[0,0.5],[1,0.5]];portConstraint=eastwest;strokeColor=inherit;fontSize=16;" vertex="1" parent="e_DNNsqGoQ1BPr0Qhp8M-66">
          <mxGeometry y="180" width="360" height="30" as="geometry" />
        </mxCell>
        <mxCell id="e_DNNsqGoQ1BPr0Qhp8M-83" value="5" style="shape=partialRectangle;html=1;whiteSpace=wrap;connectable=0;fillColor=none;top=0;left=0;bottom=0;right=0;overflow=hidden;strokeColor=inherit;fontSize=16;" vertex="1" parent="e_DNNsqGoQ1BPr0Qhp8M-82">
          <mxGeometry width="38" height="30" as="geometry">
            <mxRectangle width="38" height="30" as="alternateBounds" />
          </mxGeometry>
        </mxCell>
        <mxCell id="e_DNNsqGoQ1BPr0Qhp8M-84" value="在操作成功/失敗，都要顯示提示訊息" style="shape=partialRectangle;html=1;whiteSpace=wrap;connectable=0;fillColor=none;top=0;left=0;bottom=0;right=0;align=left;spacingLeft=6;overflow=hidden;strokeColor=inherit;fontSize=16;" vertex="1" parent="e_DNNsqGoQ1BPr0Qhp8M-82">
          <mxGeometry x="38" width="322" height="30" as="geometry">
            <mxRectangle width="322" height="30" as="alternateBounds" />
          </mxGeometry>
        </mxCell>
        <mxCell id="e_DNNsqGoQ1BPr0Qhp8M-85" style="shape=tableRow;horizontal=0;startSize=0;swimlaneHead=0;swimlaneBody=0;top=0;left=0;bottom=0;right=0;collapsible=0;dropTarget=0;fillColor=none;points=[[0,0.5],[1,0.5]];portConstraint=eastwest;strokeColor=inherit;fontSize=16;" vertex="1" parent="e_DNNsqGoQ1BPr0Qhp8M-66">
          <mxGeometry y="210" width="360" height="30" as="geometry" />
        </mxCell>
        <mxCell id="e_DNNsqGoQ1BPr0Qhp8M-86" value="6" style="shape=partialRectangle;html=1;whiteSpace=wrap;connectable=0;fillColor=none;top=0;left=0;bottom=0;right=0;overflow=hidden;strokeColor=inherit;fontSize=16;" vertex="1" parent="e_DNNsqGoQ1BPr0Qhp8M-85">
          <mxGeometry width="38" height="30" as="geometry">
            <mxRectangle width="38" height="30" as="alternateBounds" />
          </mxGeometry>
        </mxCell>
        <mxCell id="e_DNNsqGoQ1BPr0Qhp8M-87" value="未登入被導回登入頁，要顯示請登入訊息" style="shape=partialRectangle;html=1;whiteSpace=wrap;connectable=0;fillColor=none;top=0;left=0;bottom=0;right=0;align=left;spacingLeft=6;overflow=hidden;strokeColor=inherit;fontSize=16;" vertex="1" parent="e_DNNsqGoQ1BPr0Qhp8M-85">
          <mxGeometry x="38" width="322" height="30" as="geometry">
            <mxRectangle width="322" height="30" as="alternateBounds" />
          </mxGeometry>
        </mxCell>
        <mxCell id="e_DNNsqGoQ1BPr0Qhp8M-88" value="新增 Wireframe (2023.9.8)" style="rounded=0;whiteSpace=wrap;html=1;fontSize=16;" vertex="1" parent="1">
          <mxGeometry x="2550" y="580" width="720" height="40" as="geometry" />
        </mxCell>
        <mxCell id="e_DNNsqGoQ1BPr0Qhp8M-89" value="" style="group;fontSize=15;" vertex="1" connectable="0" parent="1">
          <mxGeometry x="2550" y="640" width="350" height="360" as="geometry" />
        </mxCell>
        <mxCell id="e_DNNsqGoQ1BPr0Qhp8M-90" value="註冊頁" style="rounded=0;whiteSpace=wrap;html=1;" vertex="1" parent="e_DNNsqGoQ1BPr0Qhp8M-89">
          <mxGeometry width="350" height="40" as="geometry" />
        </mxCell>
        <mxCell id="e_DNNsqGoQ1BPr0Qhp8M-91" value="" style="rounded=0;whiteSpace=wrap;html=1;container=0;" vertex="1" parent="e_DNNsqGoQ1BPr0Qhp8M-89">
          <mxGeometry y="40" width="350" height="320" as="geometry" />
        </mxCell>
        <mxCell id="e_DNNsqGoQ1BPr0Qhp8M-92" value="Register" style="text;html=1;strokeColor=none;fillColor=none;align=center;verticalAlign=middle;whiteSpace=wrap;rounded=0;fontSize=16;" vertex="1" parent="e_DNNsqGoQ1BPr0Qhp8M-89">
          <mxGeometry x="28" y="44" width="60" height="30" as="geometry" />
        </mxCell>
        <mxCell id="e_DNNsqGoQ1BPr0Qhp8M-93" value="Name" style="text;html=1;strokeColor=none;fillColor=none;align=center;verticalAlign=middle;whiteSpace=wrap;rounded=0;" vertex="1" parent="e_DNNsqGoQ1BPr0Qhp8M-89">
          <mxGeometry x="15" y="74" width="60" height="30" as="geometry" />
        </mxCell>
        <mxCell id="e_DNNsqGoQ1BPr0Qhp8M-94" value="Enter name" style="rounded=0;whiteSpace=wrap;html=1;align=left;fontColor=#b0b0b0;" vertex="1" parent="e_DNNsqGoQ1BPr0Qhp8M-89">
          <mxGeometry x="30" y="100" width="120" height="20" as="geometry" />
        </mxCell>
        <mxCell id="e_DNNsqGoQ1BPr0Qhp8M-95" value="Email" style="text;html=1;strokeColor=none;fillColor=none;align=center;verticalAlign=middle;whiteSpace=wrap;rounded=0;" vertex="1" parent="e_DNNsqGoQ1BPr0Qhp8M-89">
          <mxGeometry x="15" y="120" width="60" height="30" as="geometry" />
        </mxCell>
        <mxCell id="e_DNNsqGoQ1BPr0Qhp8M-96" value="Enter email" style="rounded=0;whiteSpace=wrap;html=1;align=left;fontColor=#b0b0b0;" vertex="1" parent="e_DNNsqGoQ1BPr0Qhp8M-89">
          <mxGeometry x="30" y="146" width="120" height="20" as="geometry" />
        </mxCell>
        <mxCell id="e_DNNsqGoQ1BPr0Qhp8M-97" value="Password" style="text;html=1;strokeColor=none;fillColor=none;align=center;verticalAlign=middle;whiteSpace=wrap;rounded=0;" vertex="1" parent="e_DNNsqGoQ1BPr0Qhp8M-89">
          <mxGeometry x="27" y="166" width="60" height="30" as="geometry" />
        </mxCell>
        <mxCell id="e_DNNsqGoQ1BPr0Qhp8M-98" value="Enter password" style="rounded=0;whiteSpace=wrap;html=1;align=left;fontColor=#b0b0b0;" vertex="1" parent="e_DNNsqGoQ1BPr0Qhp8M-89">
          <mxGeometry x="30" y="192" width="120" height="20" as="geometry" />
        </mxCell>
        <mxCell id="e_DNNsqGoQ1BPr0Qhp8M-99" value="Confirm password" style="text;html=1;strokeColor=none;fillColor=none;align=center;verticalAlign=middle;whiteSpace=wrap;rounded=0;" vertex="1" parent="e_DNNsqGoQ1BPr0Qhp8M-89">
          <mxGeometry x="15" y="212" width="125" height="30" as="geometry" />
        </mxCell>
        <mxCell id="e_DNNsqGoQ1BPr0Qhp8M-100" value="Confirm password" style="rounded=0;whiteSpace=wrap;html=1;align=left;fontColor=#b0b0b0;" vertex="1" parent="e_DNNsqGoQ1BPr0Qhp8M-89">
          <mxGeometry x="30" y="238" width="120" height="20" as="geometry" />
        </mxCell>
        <mxCell id="e_DNNsqGoQ1BPr0Qhp8M-101" value="Register" style="rounded=1;whiteSpace=wrap;html=1;" vertex="1" parent="e_DNNsqGoQ1BPr0Qhp8M-89">
          <mxGeometry x="30" y="265" width="62" height="15" as="geometry" />
        </mxCell>
        <mxCell id="e_DNNsqGoQ1BPr0Qhp8M-102" value="Already have an account?&amp;nbsp;" style="text;html=1;strokeColor=none;fillColor=none;align=center;verticalAlign=middle;whiteSpace=wrap;rounded=0;" vertex="1" parent="e_DNNsqGoQ1BPr0Qhp8M-89">
          <mxGeometry x="23" y="305" width="162" height="30" as="geometry" />
        </mxCell>
        <mxCell id="e_DNNsqGoQ1BPr0Qhp8M-103" value="Login" style="text;html=1;strokeColor=none;fillColor=none;align=center;verticalAlign=middle;whiteSpace=wrap;rounded=0;labelBackgroundColor=none;fontColor=#009dff;fontStyle=4" vertex="1" parent="e_DNNsqGoQ1BPr0Qhp8M-89">
          <mxGeometry x="165" y="305" width="60" height="30" as="geometry" />
        </mxCell>
        <mxCell id="e_DNNsqGoQ1BPr0Qhp8M-121" value="Facebook Login" style="rounded=1;whiteSpace=wrap;html=1;" vertex="1" parent="e_DNNsqGoQ1BPr0Qhp8M-89">
          <mxGeometry x="30" y="290" width="110" height="17" as="geometry" />
        </mxCell>
        <mxCell id="e_DNNsqGoQ1BPr0Qhp8M-104" value="" style="group;fontSize=15;" vertex="1" connectable="0" parent="1">
          <mxGeometry x="2920" y="640" width="350" height="360" as="geometry" />
        </mxCell>
        <mxCell id="e_DNNsqGoQ1BPr0Qhp8M-105" value="登入頁" style="rounded=0;whiteSpace=wrap;html=1;" vertex="1" parent="e_DNNsqGoQ1BPr0Qhp8M-104">
          <mxGeometry width="350" height="40" as="geometry" />
        </mxCell>
        <mxCell id="e_DNNsqGoQ1BPr0Qhp8M-106" value="" style="rounded=0;whiteSpace=wrap;html=1;container=0;" vertex="1" parent="e_DNNsqGoQ1BPr0Qhp8M-104">
          <mxGeometry y="40" width="350" height="320" as="geometry" />
        </mxCell>
        <mxCell id="e_DNNsqGoQ1BPr0Qhp8M-107" value="Login" style="text;html=1;strokeColor=none;fillColor=none;align=center;verticalAlign=middle;whiteSpace=wrap;rounded=0;fontSize=16;" vertex="1" parent="e_DNNsqGoQ1BPr0Qhp8M-104">
          <mxGeometry x="18" y="44" width="60" height="30" as="geometry" />
        </mxCell>
        <mxCell id="e_DNNsqGoQ1BPr0Qhp8M-108" value="No account?&amp;nbsp;" style="text;html=1;strokeColor=none;fillColor=none;align=center;verticalAlign=middle;whiteSpace=wrap;rounded=0;" vertex="1" parent="e_DNNsqGoQ1BPr0Qhp8M-104">
          <mxGeometry x="24" y="218" width="87" height="30" as="geometry" />
        </mxCell>
        <mxCell id="e_DNNsqGoQ1BPr0Qhp8M-109" value="Register" style="text;html=1;strokeColor=none;fillColor=none;align=center;verticalAlign=middle;whiteSpace=wrap;rounded=0;labelBackgroundColor=none;fontColor=#009dff;fontStyle=4" vertex="1" parent="e_DNNsqGoQ1BPr0Qhp8M-104">
          <mxGeometry x="98" y="217" width="60" height="30" as="geometry" />
        </mxCell>
        <mxCell id="e_DNNsqGoQ1BPr0Qhp8M-120" value="Facebook Login" style="rounded=1;whiteSpace=wrap;html=1;" vertex="1" parent="e_DNNsqGoQ1BPr0Qhp8M-104">
          <mxGeometry x="30" y="200" width="110" height="17" as="geometry" />
        </mxCell>
        <mxCell id="e_DNNsqGoQ1BPr0Qhp8M-110" value="Email" style="text;html=1;strokeColor=none;fillColor=none;align=center;verticalAlign=middle;whiteSpace=wrap;rounded=0;" vertex="1" parent="1">
          <mxGeometry x="2935" y="715" width="60" height="30" as="geometry" />
        </mxCell>
        <mxCell id="e_DNNsqGoQ1BPr0Qhp8M-111" value="Enter email" style="rounded=0;whiteSpace=wrap;html=1;align=left;fontColor=#b0b0b0;" vertex="1" parent="1">
          <mxGeometry x="2950" y="741" width="120" height="20" as="geometry" />
        </mxCell>
        <mxCell id="e_DNNsqGoQ1BPr0Qhp8M-112" value="Password" style="text;html=1;strokeColor=none;fillColor=none;align=center;verticalAlign=middle;whiteSpace=wrap;rounded=0;" vertex="1" parent="1">
          <mxGeometry x="2947" y="761" width="60" height="30" as="geometry" />
        </mxCell>
        <mxCell id="e_DNNsqGoQ1BPr0Qhp8M-113" value="Enter password" style="rounded=0;whiteSpace=wrap;html=1;align=left;fontColor=#b0b0b0;" vertex="1" parent="1">
          <mxGeometry x="2950" y="787" width="120" height="20" as="geometry" />
        </mxCell>
        <mxCell id="e_DNNsqGoQ1BPr0Qhp8M-114" value="Login" style="rounded=1;whiteSpace=wrap;html=1;" vertex="1" parent="1">
          <mxGeometry x="2950" y="817" width="62" height="15" as="geometry" />
        </mxCell>
        <mxCell id="e_DNNsqGoQ1BPr0Qhp8M-115" value="" style="group;fontSize=15;" vertex="1" connectable="0" parent="1">
          <mxGeometry x="2550" y="1020" width="360" height="390" as="geometry" />
        </mxCell>
        <mxCell id="e_DNNsqGoQ1BPr0Qhp8M-116" value="一般頁面" style="rounded=0;whiteSpace=wrap;html=1;" vertex="1" parent="e_DNNsqGoQ1BPr0Qhp8M-115">
          <mxGeometry width="350" height="40" as="geometry" />
        </mxCell>
        <mxCell id="e_DNNsqGoQ1BPr0Qhp8M-117" value="" style="rounded=0;whiteSpace=wrap;html=1;container=0;" vertex="1" parent="e_DNNsqGoQ1BPr0Qhp8M-115">
          <mxGeometry y="40" width="350" height="320" as="geometry" />
        </mxCell>
        <mxCell id="e_DNNsqGoQ1BPr0Qhp8M-118" value="Logout" style="rounded=1;whiteSpace=wrap;html=1;" vertex="1" parent="e_DNNsqGoQ1BPr0Qhp8M-115">
          <mxGeometry x="280" y="50" width="62" height="15" as="geometry" />
        </mxCell>
        <mxCell id="e_DNNsqGoQ1BPr0Qhp8M-119" value="Page" style="rounded=0;whiteSpace=wrap;html=1;container=0;" vertex="1" parent="e_DNNsqGoQ1BPr0Qhp8M-115">
          <mxGeometry x="10" y="70" width="330" height="280" as="geometry" />
        </mxCell>
        <mxCell id="e_DNNsqGoQ1BPr0Qhp8M-122" value="新增 User Flow&amp;nbsp;&amp;nbsp;(2023.9.8)" style="rounded=0;whiteSpace=wrap;html=1;fontSize=16;" vertex="1" parent="1">
          <mxGeometry x="2550" y="1410" width="720" height="40" as="geometry" />
        </mxCell>
        <mxCell id="e_DNNsqGoQ1BPr0Qhp8M-123" value="" style="group;fontSize=15;" vertex="1" connectable="0" parent="1">
          <mxGeometry x="2550" y="1479" width="350" height="360" as="geometry" />
        </mxCell>
        <mxCell id="e_DNNsqGoQ1BPr0Qhp8M-124" value="註冊頁" style="rounded=0;whiteSpace=wrap;html=1;" vertex="1" parent="e_DNNsqGoQ1BPr0Qhp8M-123">
          <mxGeometry width="350" height="40" as="geometry" />
        </mxCell>
        <mxCell id="e_DNNsqGoQ1BPr0Qhp8M-125" value="" style="rounded=0;whiteSpace=wrap;html=1;container=0;" vertex="1" parent="e_DNNsqGoQ1BPr0Qhp8M-123">
          <mxGeometry y="40" width="350" height="320" as="geometry" />
        </mxCell>
        <mxCell id="e_DNNsqGoQ1BPr0Qhp8M-126" value="Register" style="text;html=1;strokeColor=none;fillColor=none;align=center;verticalAlign=middle;whiteSpace=wrap;rounded=0;fontSize=16;" vertex="1" parent="e_DNNsqGoQ1BPr0Qhp8M-123">
          <mxGeometry x="28" y="44" width="60" height="30" as="geometry" />
        </mxCell>
        <mxCell id="e_DNNsqGoQ1BPr0Qhp8M-127" value="Name" style="text;html=1;strokeColor=none;fillColor=none;align=center;verticalAlign=middle;whiteSpace=wrap;rounded=0;" vertex="1" parent="e_DNNsqGoQ1BPr0Qhp8M-123">
          <mxGeometry x="15" y="74" width="60" height="30" as="geometry" />
        </mxCell>
        <mxCell id="e_DNNsqGoQ1BPr0Qhp8M-128" value="Enter name" style="rounded=0;whiteSpace=wrap;html=1;align=left;fontColor=#b0b0b0;" vertex="1" parent="e_DNNsqGoQ1BPr0Qhp8M-123">
          <mxGeometry x="30" y="100" width="120" height="20" as="geometry" />
        </mxCell>
        <mxCell id="e_DNNsqGoQ1BPr0Qhp8M-129" value="Email" style="text;html=1;strokeColor=none;fillColor=none;align=center;verticalAlign=middle;whiteSpace=wrap;rounded=0;" vertex="1" parent="e_DNNsqGoQ1BPr0Qhp8M-123">
          <mxGeometry x="15" y="120" width="60" height="30" as="geometry" />
        </mxCell>
        <mxCell id="e_DNNsqGoQ1BPr0Qhp8M-130" value="Enter email" style="rounded=0;whiteSpace=wrap;html=1;align=left;fontColor=#b0b0b0;" vertex="1" parent="e_DNNsqGoQ1BPr0Qhp8M-123">
          <mxGeometry x="30" y="146" width="120" height="20" as="geometry" />
        </mxCell>
        <mxCell id="e_DNNsqGoQ1BPr0Qhp8M-131" value="Password" style="text;html=1;strokeColor=none;fillColor=none;align=center;verticalAlign=middle;whiteSpace=wrap;rounded=0;" vertex="1" parent="e_DNNsqGoQ1BPr0Qhp8M-123">
          <mxGeometry x="27" y="166" width="60" height="30" as="geometry" />
        </mxCell>
        <mxCell id="e_DNNsqGoQ1BPr0Qhp8M-132" value="Enter password" style="rounded=0;whiteSpace=wrap;html=1;align=left;fontColor=#b0b0b0;" vertex="1" parent="e_DNNsqGoQ1BPr0Qhp8M-123">
          <mxGeometry x="30" y="192" width="120" height="20" as="geometry" />
        </mxCell>
        <mxCell id="e_DNNsqGoQ1BPr0Qhp8M-133" value="Confirm password" style="text;html=1;strokeColor=none;fillColor=none;align=center;verticalAlign=middle;whiteSpace=wrap;rounded=0;" vertex="1" parent="e_DNNsqGoQ1BPr0Qhp8M-123">
          <mxGeometry x="15" y="212" width="125" height="30" as="geometry" />
        </mxCell>
        <mxCell id="e_DNNsqGoQ1BPr0Qhp8M-134" value="Confirm password" style="rounded=0;whiteSpace=wrap;html=1;align=left;fontColor=#b0b0b0;" vertex="1" parent="e_DNNsqGoQ1BPr0Qhp8M-123">
          <mxGeometry x="30" y="238" width="120" height="20" as="geometry" />
        </mxCell>
        <mxCell id="e_DNNsqGoQ1BPr0Qhp8M-135" value="Register" style="rounded=1;whiteSpace=wrap;html=1;" vertex="1" parent="e_DNNsqGoQ1BPr0Qhp8M-123">
          <mxGeometry x="30" y="265" width="62" height="15" as="geometry" />
        </mxCell>
        <mxCell id="e_DNNsqGoQ1BPr0Qhp8M-136" value="Already have an account?&amp;nbsp;" style="text;html=1;strokeColor=none;fillColor=none;align=center;verticalAlign=middle;whiteSpace=wrap;rounded=0;" vertex="1" parent="e_DNNsqGoQ1BPr0Qhp8M-123">
          <mxGeometry x="23" y="307" width="162" height="30" as="geometry" />
        </mxCell>
        <mxCell id="e_DNNsqGoQ1BPr0Qhp8M-137" value="Login" style="text;html=1;strokeColor=none;fillColor=none;align=center;verticalAlign=middle;whiteSpace=wrap;rounded=0;labelBackgroundColor=none;fontColor=#009dff;fontStyle=4" vertex="1" parent="e_DNNsqGoQ1BPr0Qhp8M-123">
          <mxGeometry x="165" y="307" width="60" height="30" as="geometry" />
        </mxCell>
        <mxCell id="e_DNNsqGoQ1BPr0Qhp8M-159" value="Facebook Login" style="rounded=1;whiteSpace=wrap;html=1;" vertex="1" parent="e_DNNsqGoQ1BPr0Qhp8M-123">
          <mxGeometry x="30" y="291" width="110" height="17" as="geometry" />
        </mxCell>
        <mxCell id="e_DNNsqGoQ1BPr0Qhp8M-138" value="" style="group;fontSize=15;" vertex="1" connectable="0" parent="1">
          <mxGeometry x="2920" y="1479" width="350" height="360" as="geometry" />
        </mxCell>
        <mxCell id="e_DNNsqGoQ1BPr0Qhp8M-139" value="登入頁" style="rounded=0;whiteSpace=wrap;html=1;" vertex="1" parent="e_DNNsqGoQ1BPr0Qhp8M-138">
          <mxGeometry width="350" height="40" as="geometry" />
        </mxCell>
        <mxCell id="e_DNNsqGoQ1BPr0Qhp8M-140" value="" style="rounded=0;whiteSpace=wrap;html=1;container=0;" vertex="1" parent="e_DNNsqGoQ1BPr0Qhp8M-138">
          <mxGeometry y="40" width="350" height="320" as="geometry" />
        </mxCell>
        <mxCell id="e_DNNsqGoQ1BPr0Qhp8M-141" value="Login" style="text;html=1;strokeColor=none;fillColor=none;align=center;verticalAlign=middle;whiteSpace=wrap;rounded=0;fontSize=16;" vertex="1" parent="e_DNNsqGoQ1BPr0Qhp8M-138">
          <mxGeometry x="18" y="44" width="60" height="30" as="geometry" />
        </mxCell>
        <mxCell id="e_DNNsqGoQ1BPr0Qhp8M-142" value="No account?&amp;nbsp;" style="text;html=1;strokeColor=none;fillColor=none;align=center;verticalAlign=middle;whiteSpace=wrap;rounded=0;" vertex="1" parent="e_DNNsqGoQ1BPr0Qhp8M-138">
          <mxGeometry x="24" y="220" width="87" height="30" as="geometry" />
        </mxCell>
        <mxCell id="e_DNNsqGoQ1BPr0Qhp8M-143" value="Register" style="text;html=1;strokeColor=none;fillColor=none;align=center;verticalAlign=middle;whiteSpace=wrap;rounded=0;labelBackgroundColor=none;fontColor=#009dff;fontStyle=4" vertex="1" parent="e_DNNsqGoQ1BPr0Qhp8M-138">
          <mxGeometry x="98" y="219" width="60" height="30" as="geometry" />
        </mxCell>
        <mxCell id="e_DNNsqGoQ1BPr0Qhp8M-158" value="Facebook Login" style="rounded=1;whiteSpace=wrap;html=1;" vertex="1" parent="e_DNNsqGoQ1BPr0Qhp8M-138">
          <mxGeometry x="30" y="203" width="110" height="17" as="geometry" />
        </mxCell>
        <mxCell id="e_DNNsqGoQ1BPr0Qhp8M-144" value="Email" style="text;html=1;strokeColor=none;fillColor=none;align=center;verticalAlign=middle;whiteSpace=wrap;rounded=0;" vertex="1" parent="1">
          <mxGeometry x="2935" y="1554" width="60" height="30" as="geometry" />
        </mxCell>
        <mxCell id="e_DNNsqGoQ1BPr0Qhp8M-145" value="Enter email" style="rounded=0;whiteSpace=wrap;html=1;align=left;fontColor=#b0b0b0;" vertex="1" parent="1">
          <mxGeometry x="2950" y="1580" width="120" height="20" as="geometry" />
        </mxCell>
        <mxCell id="e_DNNsqGoQ1BPr0Qhp8M-146" value="Password" style="text;html=1;strokeColor=none;fillColor=none;align=center;verticalAlign=middle;whiteSpace=wrap;rounded=0;" vertex="1" parent="1">
          <mxGeometry x="2947" y="1600" width="60" height="30" as="geometry" />
        </mxCell>
        <mxCell id="e_DNNsqGoQ1BPr0Qhp8M-147" value="Enter password" style="rounded=0;whiteSpace=wrap;html=1;align=left;fontColor=#b0b0b0;" vertex="1" parent="1">
          <mxGeometry x="2950" y="1626" width="120" height="20" as="geometry" />
        </mxCell>
        <mxCell id="e_DNNsqGoQ1BPr0Qhp8M-148" style="edgeStyle=orthogonalEdgeStyle;rounded=0;orthogonalLoop=1;jettySize=auto;html=1;exitX=0;exitY=0.25;exitDx=0;exitDy=0;entryX=1;entryY=0.5;entryDx=0;entryDy=0;fillColor=#d5e8d4;strokeColor=#82b366;" edge="1" parent="1" source="e_DNNsqGoQ1BPr0Qhp8M-149" target="e_DNNsqGoQ1BPr0Qhp8M-151">
          <mxGeometry relative="1" as="geometry">
            <Array as="points">
              <mxPoint x="2940" y="1660" />
              <mxPoint x="2940" y="2059" />
            </Array>
          </mxGeometry>
        </mxCell>
        <mxCell id="e_DNNsqGoQ1BPr0Qhp8M-149" value="Login" style="rounded=1;whiteSpace=wrap;html=1;" vertex="1" parent="1">
          <mxGeometry x="2950" y="1656" width="62" height="15" as="geometry" />
        </mxCell>
        <mxCell id="e_DNNsqGoQ1BPr0Qhp8M-150" value="一般頁面" style="rounded=0;whiteSpace=wrap;html=1;" vertex="1" parent="1">
          <mxGeometry x="2550" y="1859" width="350" height="40" as="geometry" />
        </mxCell>
        <mxCell id="e_DNNsqGoQ1BPr0Qhp8M-151" value="" style="rounded=0;whiteSpace=wrap;html=1;container=0;" vertex="1" parent="1">
          <mxGeometry x="2550" y="1899" width="350" height="320" as="geometry" />
        </mxCell>
        <mxCell id="e_DNNsqGoQ1BPr0Qhp8M-152" style="edgeStyle=orthogonalEdgeStyle;rounded=0;orthogonalLoop=1;jettySize=auto;html=1;entryX=0.5;entryY=1;entryDx=0;entryDy=0;fillColor=#d5e8d4;strokeColor=#82b366;" edge="1" parent="1" source="e_DNNsqGoQ1BPr0Qhp8M-153" target="e_DNNsqGoQ1BPr0Qhp8M-140">
          <mxGeometry relative="1" as="geometry" />
        </mxCell>
        <mxCell id="e_DNNsqGoQ1BPr0Qhp8M-153" value="Logout" style="rounded=1;whiteSpace=wrap;html=1;" vertex="1" parent="1">
          <mxGeometry x="2830" y="1909" width="62" height="15" as="geometry" />
        </mxCell>
        <mxCell id="e_DNNsqGoQ1BPr0Qhp8M-154" value="Page" style="rounded=0;whiteSpace=wrap;html=1;container=0;dashed=1;" vertex="1" parent="1">
          <mxGeometry x="2560" y="1929" width="330" height="280" as="geometry" />
        </mxCell>
        <mxCell id="e_DNNsqGoQ1BPr0Qhp8M-155" style="edgeStyle=orthogonalEdgeStyle;rounded=0;orthogonalLoop=1;jettySize=auto;html=1;entryX=-0.011;entryY=0.331;entryDx=0;entryDy=0;entryPerimeter=0;fillColor=#d5e8d4;strokeColor=#82b366;" edge="1" parent="1" source="e_DNNsqGoQ1BPr0Qhp8M-135" target="e_DNNsqGoQ1BPr0Qhp8M-140">
          <mxGeometry relative="1" as="geometry" />
        </mxCell>
        <mxCell id="e_DNNsqGoQ1BPr0Qhp8M-156" style="edgeStyle=orthogonalEdgeStyle;rounded=0;orthogonalLoop=1;jettySize=auto;html=1;exitX=1;exitY=0.5;exitDx=0;exitDy=0;entryX=-0.006;entryY=0.797;entryDx=0;entryDy=0;entryPerimeter=0;fillColor=#d5e8d4;strokeColor=#82b366;" edge="1" parent="1" source="e_DNNsqGoQ1BPr0Qhp8M-137">
          <mxGeometry relative="1" as="geometry">
            <mxPoint x="2917.8999999999996" y="1801.04" as="targetPoint" />
          </mxGeometry>
        </mxCell>
        <mxCell id="e_DNNsqGoQ1BPr0Qhp8M-160" style="edgeStyle=orthogonalEdgeStyle;rounded=0;orthogonalLoop=1;jettySize=auto;html=1;entryX=0;entryY=0.5;entryDx=0;entryDy=0;fillColor=#d5e8d4;strokeColor=#82b366;" edge="1" parent="1" source="e_DNNsqGoQ1BPr0Qhp8M-159" target="e_DNNsqGoQ1BPr0Qhp8M-151">
          <mxGeometry relative="1" as="geometry">
            <Array as="points">
              <mxPoint x="2530" y="1780" />
              <mxPoint x="2530" y="2059" />
            </Array>
          </mxGeometry>
        </mxCell>
        <mxCell id="e_DNNsqGoQ1BPr0Qhp8M-161" style="edgeStyle=orthogonalEdgeStyle;rounded=0;orthogonalLoop=1;jettySize=auto;html=1;entryX=0.996;entryY=0.707;entryDx=0;entryDy=0;entryPerimeter=0;fillColor=#d5e8d4;strokeColor=#82b366;" edge="1" parent="1" source="e_DNNsqGoQ1BPr0Qhp8M-158" target="e_DNNsqGoQ1BPr0Qhp8M-151">
          <mxGeometry relative="1" as="geometry">
            <Array as="points">
              <mxPoint x="3170" y="1690" />
              <mxPoint x="3170" y="2125" />
            </Array>
          </mxGeometry>
        </mxCell>
        <mxCell id="e_DNNsqGoQ1BPr0Qhp8M-162" style="edgeStyle=orthogonalEdgeStyle;rounded=0;orthogonalLoop=1;jettySize=auto;html=1;entryX=1;entryY=0.75;entryDx=0;entryDy=0;fillColor=#d5e8d4;strokeColor=#82b366;" edge="1" parent="1" source="e_DNNsqGoQ1BPr0Qhp8M-143" target="e_DNNsqGoQ1BPr0Qhp8M-125">
          <mxGeometry relative="1" as="geometry">
            <Array as="points">
              <mxPoint x="3048" y="1759" />
            </Array>
          </mxGeometry>
        </mxCell>
        <mxCell id="e_DNNsqGoQ1BPr0Qhp8M-163" value="" style="shape=table;startSize=0;container=1;collapsible=0;childLayout=tableLayout;fontSize=16;" vertex="1" parent="1">
          <mxGeometry x="2550" y="2352" width="500" height="240" as="geometry" />
        </mxCell>
        <mxCell id="e_DNNsqGoQ1BPr0Qhp8M-164" value="" style="shape=tableRow;horizontal=0;startSize=0;swimlaneHead=0;swimlaneBody=0;strokeColor=inherit;top=0;left=0;bottom=0;right=0;collapsible=0;dropTarget=0;fillColor=none;points=[[0,0.5],[1,0.5]];portConstraint=eastwest;fontSize=16;" vertex="1" parent="e_DNNsqGoQ1BPr0Qhp8M-163">
          <mxGeometry width="500" height="40" as="geometry" />
        </mxCell>
        <mxCell id="e_DNNsqGoQ1BPr0Qhp8M-165" value="操作動作" style="shape=partialRectangle;html=1;whiteSpace=wrap;connectable=0;strokeColor=inherit;overflow=hidden;fillColor=none;top=0;left=0;bottom=0;right=0;pointerEvents=1;fontSize=16;" vertex="1" parent="e_DNNsqGoQ1BPr0Qhp8M-164">
          <mxGeometry width="167" height="40" as="geometry">
            <mxRectangle width="167" height="40" as="alternateBounds" />
          </mxGeometry>
        </mxCell>
        <mxCell id="e_DNNsqGoQ1BPr0Qhp8M-166" value="Verb" style="shape=partialRectangle;html=1;whiteSpace=wrap;connectable=0;strokeColor=inherit;overflow=hidden;fillColor=none;top=0;left=0;bottom=0;right=0;pointerEvents=1;fontSize=16;" vertex="1" parent="e_DNNsqGoQ1BPr0Qhp8M-164">
          <mxGeometry x="167" width="166" height="40" as="geometry">
            <mxRectangle width="166" height="40" as="alternateBounds" />
          </mxGeometry>
        </mxCell>
        <mxCell id="e_DNNsqGoQ1BPr0Qhp8M-167" value="URL" style="shape=partialRectangle;html=1;whiteSpace=wrap;connectable=0;strokeColor=inherit;overflow=hidden;fillColor=none;top=0;left=0;bottom=0;right=0;pointerEvents=1;fontSize=16;" vertex="1" parent="e_DNNsqGoQ1BPr0Qhp8M-164">
          <mxGeometry x="333" width="167" height="40" as="geometry">
            <mxRectangle width="167" height="40" as="alternateBounds" />
          </mxGeometry>
        </mxCell>
        <mxCell id="e_DNNsqGoQ1BPr0Qhp8M-168" value="" style="shape=tableRow;horizontal=0;startSize=0;swimlaneHead=0;swimlaneBody=0;strokeColor=inherit;top=0;left=0;bottom=0;right=0;collapsible=0;dropTarget=0;fillColor=none;points=[[0,0.5],[1,0.5]];portConstraint=eastwest;fontSize=16;" vertex="1" parent="e_DNNsqGoQ1BPr0Qhp8M-163">
          <mxGeometry y="40" width="500" height="40" as="geometry" />
        </mxCell>
        <mxCell id="e_DNNsqGoQ1BPr0Qhp8M-169" value="取得註冊頁" style="shape=partialRectangle;html=1;whiteSpace=wrap;connectable=0;strokeColor=inherit;overflow=hidden;fillColor=none;top=0;left=0;bottom=0;right=0;pointerEvents=1;fontSize=16;" vertex="1" parent="e_DNNsqGoQ1BPr0Qhp8M-168">
          <mxGeometry width="167" height="40" as="geometry">
            <mxRectangle width="167" height="40" as="alternateBounds" />
          </mxGeometry>
        </mxCell>
        <mxCell id="e_DNNsqGoQ1BPr0Qhp8M-170" value="GET" style="shape=partialRectangle;html=1;whiteSpace=wrap;connectable=0;strokeColor=inherit;overflow=hidden;fillColor=none;top=0;left=0;bottom=0;right=0;pointerEvents=1;fontSize=16;" vertex="1" parent="e_DNNsqGoQ1BPr0Qhp8M-168">
          <mxGeometry x="167" width="166" height="40" as="geometry">
            <mxRectangle width="166" height="40" as="alternateBounds" />
          </mxGeometry>
        </mxCell>
        <mxCell id="e_DNNsqGoQ1BPr0Qhp8M-171" value="/register" style="shape=partialRectangle;html=1;whiteSpace=wrap;connectable=0;strokeColor=inherit;overflow=hidden;fillColor=none;top=0;left=0;bottom=0;right=0;pointerEvents=1;fontSize=16;" vertex="1" parent="e_DNNsqGoQ1BPr0Qhp8M-168">
          <mxGeometry x="333" width="167" height="40" as="geometry">
            <mxRectangle width="167" height="40" as="alternateBounds" />
          </mxGeometry>
        </mxCell>
        <mxCell id="e_DNNsqGoQ1BPr0Qhp8M-172" value="" style="shape=tableRow;horizontal=0;startSize=0;swimlaneHead=0;swimlaneBody=0;strokeColor=inherit;top=0;left=0;bottom=0;right=0;collapsible=0;dropTarget=0;fillColor=none;points=[[0,0.5],[1,0.5]];portConstraint=eastwest;fontSize=16;" vertex="1" parent="e_DNNsqGoQ1BPr0Qhp8M-163">
          <mxGeometry y="80" width="500" height="40" as="geometry" />
        </mxCell>
        <mxCell id="e_DNNsqGoQ1BPr0Qhp8M-173" value="取得登入頁" style="shape=partialRectangle;html=1;whiteSpace=wrap;connectable=0;strokeColor=inherit;overflow=hidden;fillColor=none;top=0;left=0;bottom=0;right=0;pointerEvents=1;fontSize=16;" vertex="1" parent="e_DNNsqGoQ1BPr0Qhp8M-172">
          <mxGeometry width="167" height="40" as="geometry">
            <mxRectangle width="167" height="40" as="alternateBounds" />
          </mxGeometry>
        </mxCell>
        <mxCell id="e_DNNsqGoQ1BPr0Qhp8M-174" value="GET" style="shape=partialRectangle;html=1;whiteSpace=wrap;connectable=0;strokeColor=inherit;overflow=hidden;fillColor=none;top=0;left=0;bottom=0;right=0;pointerEvents=1;fontSize=16;" vertex="1" parent="e_DNNsqGoQ1BPr0Qhp8M-172">
          <mxGeometry x="167" width="166" height="40" as="geometry">
            <mxRectangle width="166" height="40" as="alternateBounds" />
          </mxGeometry>
        </mxCell>
        <mxCell id="e_DNNsqGoQ1BPr0Qhp8M-175" value="/login" style="shape=partialRectangle;html=1;whiteSpace=wrap;connectable=0;strokeColor=inherit;overflow=hidden;fillColor=none;top=0;left=0;bottom=0;right=0;pointerEvents=1;fontSize=16;" vertex="1" parent="e_DNNsqGoQ1BPr0Qhp8M-172">
          <mxGeometry x="333" width="167" height="40" as="geometry">
            <mxRectangle width="167" height="40" as="alternateBounds" />
          </mxGeometry>
        </mxCell>
        <mxCell id="e_DNNsqGoQ1BPr0Qhp8M-176" style="shape=tableRow;horizontal=0;startSize=0;swimlaneHead=0;swimlaneBody=0;strokeColor=inherit;top=0;left=0;bottom=0;right=0;collapsible=0;dropTarget=0;fillColor=none;points=[[0,0.5],[1,0.5]];portConstraint=eastwest;fontSize=16;" vertex="1" parent="e_DNNsqGoQ1BPr0Qhp8M-163">
          <mxGeometry y="120" width="500" height="40" as="geometry" />
        </mxCell>
        <mxCell id="e_DNNsqGoQ1BPr0Qhp8M-177" value="新增帳號" style="shape=partialRectangle;html=1;whiteSpace=wrap;connectable=0;strokeColor=inherit;overflow=hidden;fillColor=none;top=0;left=0;bottom=0;right=0;pointerEvents=1;fontSize=16;" vertex="1" parent="e_DNNsqGoQ1BPr0Qhp8M-176">
          <mxGeometry width="167" height="40" as="geometry">
            <mxRectangle width="167" height="40" as="alternateBounds" />
          </mxGeometry>
        </mxCell>
        <mxCell id="e_DNNsqGoQ1BPr0Qhp8M-178" value="POST" style="shape=partialRectangle;html=1;whiteSpace=wrap;connectable=0;strokeColor=inherit;overflow=hidden;fillColor=none;top=0;left=0;bottom=0;right=0;pointerEvents=1;fontSize=16;" vertex="1" parent="e_DNNsqGoQ1BPr0Qhp8M-176">
          <mxGeometry x="167" width="166" height="40" as="geometry">
            <mxRectangle width="166" height="40" as="alternateBounds" />
          </mxGeometry>
        </mxCell>
        <mxCell id="e_DNNsqGoQ1BPr0Qhp8M-179" value="/users" style="shape=partialRectangle;html=1;whiteSpace=wrap;connectable=0;strokeColor=inherit;overflow=hidden;fillColor=none;top=0;left=0;bottom=0;right=0;pointerEvents=1;fontSize=16;" vertex="1" parent="e_DNNsqGoQ1BPr0Qhp8M-176">
          <mxGeometry x="333" width="167" height="40" as="geometry">
            <mxRectangle width="167" height="40" as="alternateBounds" />
          </mxGeometry>
        </mxCell>
        <mxCell id="e_DNNsqGoQ1BPr0Qhp8M-180" style="shape=tableRow;horizontal=0;startSize=0;swimlaneHead=0;swimlaneBody=0;strokeColor=inherit;top=0;left=0;bottom=0;right=0;collapsible=0;dropTarget=0;fillColor=none;points=[[0,0.5],[1,0.5]];portConstraint=eastwest;fontSize=16;" vertex="1" parent="e_DNNsqGoQ1BPr0Qhp8M-163">
          <mxGeometry y="160" width="500" height="40" as="geometry" />
        </mxCell>
        <mxCell id="e_DNNsqGoQ1BPr0Qhp8M-181" value="登入" style="shape=partialRectangle;html=1;whiteSpace=wrap;connectable=0;strokeColor=inherit;overflow=hidden;fillColor=none;top=0;left=0;bottom=0;right=0;pointerEvents=1;fontSize=16;" vertex="1" parent="e_DNNsqGoQ1BPr0Qhp8M-180">
          <mxGeometry width="167" height="40" as="geometry">
            <mxRectangle width="167" height="40" as="alternateBounds" />
          </mxGeometry>
        </mxCell>
        <mxCell id="e_DNNsqGoQ1BPr0Qhp8M-182" value="POST" style="shape=partialRectangle;html=1;whiteSpace=wrap;connectable=0;strokeColor=inherit;overflow=hidden;fillColor=none;top=0;left=0;bottom=0;right=0;pointerEvents=1;fontSize=16;" vertex="1" parent="e_DNNsqGoQ1BPr0Qhp8M-180">
          <mxGeometry x="167" width="166" height="40" as="geometry">
            <mxRectangle width="166" height="40" as="alternateBounds" />
          </mxGeometry>
        </mxCell>
        <mxCell id="e_DNNsqGoQ1BPr0Qhp8M-183" value="/login" style="shape=partialRectangle;html=1;whiteSpace=wrap;connectable=0;strokeColor=inherit;overflow=hidden;fillColor=none;top=0;left=0;bottom=0;right=0;pointerEvents=1;fontSize=16;" vertex="1" parent="e_DNNsqGoQ1BPr0Qhp8M-180">
          <mxGeometry x="333" width="167" height="40" as="geometry">
            <mxRectangle width="167" height="40" as="alternateBounds" />
          </mxGeometry>
        </mxCell>
        <mxCell id="e_DNNsqGoQ1BPr0Qhp8M-184" style="shape=tableRow;horizontal=0;startSize=0;swimlaneHead=0;swimlaneBody=0;strokeColor=inherit;top=0;left=0;bottom=0;right=0;collapsible=0;dropTarget=0;fillColor=none;points=[[0,0.5],[1,0.5]];portConstraint=eastwest;fontSize=16;" vertex="1" parent="e_DNNsqGoQ1BPr0Qhp8M-163">
          <mxGeometry y="200" width="500" height="40" as="geometry" />
        </mxCell>
        <mxCell id="e_DNNsqGoQ1BPr0Qhp8M-185" value="登出" style="shape=partialRectangle;html=1;whiteSpace=wrap;connectable=0;strokeColor=inherit;overflow=hidden;fillColor=none;top=0;left=0;bottom=0;right=0;pointerEvents=1;fontSize=16;" vertex="1" parent="e_DNNsqGoQ1BPr0Qhp8M-184">
          <mxGeometry width="167" height="40" as="geometry">
            <mxRectangle width="167" height="40" as="alternateBounds" />
          </mxGeometry>
        </mxCell>
        <mxCell id="e_DNNsqGoQ1BPr0Qhp8M-186" value="POST" style="shape=partialRectangle;html=1;whiteSpace=wrap;connectable=0;strokeColor=inherit;overflow=hidden;fillColor=none;top=0;left=0;bottom=0;right=0;pointerEvents=1;fontSize=16;" vertex="1" parent="e_DNNsqGoQ1BPr0Qhp8M-184">
          <mxGeometry x="167" width="166" height="40" as="geometry">
            <mxRectangle width="166" height="40" as="alternateBounds" />
          </mxGeometry>
        </mxCell>
        <mxCell id="e_DNNsqGoQ1BPr0Qhp8M-187" value="/logout" style="shape=partialRectangle;html=1;whiteSpace=wrap;connectable=0;strokeColor=inherit;overflow=hidden;fillColor=none;top=0;left=0;bottom=0;right=0;pointerEvents=1;fontSize=16;" vertex="1" parent="e_DNNsqGoQ1BPr0Qhp8M-184">
          <mxGeometry x="333" width="167" height="40" as="geometry">
            <mxRectangle width="167" height="40" as="alternateBounds" />
          </mxGeometry>
        </mxCell>
        <mxCell id="e_DNNsqGoQ1BPr0Qhp8M-188" value="新增 todo list 路由&amp;nbsp;(2023.9.8)" style="rounded=0;whiteSpace=wrap;html=1;fontSize=16;" vertex="1" parent="1">
          <mxGeometry x="2550" y="2302" width="500" height="40" as="geometry" />
        </mxCell>
        <mxCell id="e_DNNsqGoQ1BPr0Qhp8M-189" value="" style="shape=table;startSize=0;container=1;collapsible=0;childLayout=tableLayout;fontSize=16;" vertex="1" parent="1">
          <mxGeometry x="3110" y="2352" width="333" height="280" as="geometry" />
        </mxCell>
        <mxCell id="e_DNNsqGoQ1BPr0Qhp8M-190" value="" style="shape=tableRow;horizontal=0;startSize=0;swimlaneHead=0;swimlaneBody=0;strokeColor=inherit;top=0;left=0;bottom=0;right=0;collapsible=0;dropTarget=0;fillColor=none;points=[[0,0.5],[1,0.5]];portConstraint=eastwest;fontSize=16;" vertex="1" parent="e_DNNsqGoQ1BPr0Qhp8M-189">
          <mxGeometry width="333" height="40" as="geometry" />
        </mxCell>
        <mxCell id="e_DNNsqGoQ1BPr0Qhp8M-191" value="" style="shape=partialRectangle;html=1;whiteSpace=wrap;connectable=0;strokeColor=inherit;overflow=hidden;fillColor=none;top=0;left=0;bottom=0;right=0;pointerEvents=1;fontSize=16;" vertex="1" parent="e_DNNsqGoQ1BPr0Qhp8M-190">
          <mxGeometry width="90" height="40" as="geometry">
            <mxRectangle width="90" height="40" as="alternateBounds" />
          </mxGeometry>
        </mxCell>
        <mxCell id="e_DNNsqGoQ1BPr0Qhp8M-192" value="Users" style="shape=partialRectangle;html=1;whiteSpace=wrap;connectable=0;strokeColor=inherit;overflow=hidden;fillColor=none;top=0;left=0;bottom=0;right=0;pointerEvents=1;fontSize=16;" vertex="1" parent="e_DNNsqGoQ1BPr0Qhp8M-190">
          <mxGeometry x="90" width="243" height="40" as="geometry">
            <mxRectangle width="243" height="40" as="alternateBounds" />
          </mxGeometry>
        </mxCell>
        <mxCell id="e_DNNsqGoQ1BPr0Qhp8M-193" value="" style="shape=tableRow;horizontal=0;startSize=0;swimlaneHead=0;swimlaneBody=0;strokeColor=inherit;top=0;left=0;bottom=0;right=0;collapsible=0;dropTarget=0;fillColor=none;points=[[0,0.5],[1,0.5]];portConstraint=eastwest;fontSize=16;" vertex="1" parent="e_DNNsqGoQ1BPr0Qhp8M-189">
          <mxGeometry y="40" width="333" height="40" as="geometry" />
        </mxCell>
        <mxCell id="e_DNNsqGoQ1BPr0Qhp8M-194" value="PK" style="shape=partialRectangle;html=1;whiteSpace=wrap;connectable=0;strokeColor=inherit;overflow=hidden;fillColor=none;top=0;left=0;bottom=0;right=0;pointerEvents=1;fontSize=16;" vertex="1" parent="e_DNNsqGoQ1BPr0Qhp8M-193">
          <mxGeometry width="90" height="40" as="geometry">
            <mxRectangle width="90" height="40" as="alternateBounds" />
          </mxGeometry>
        </mxCell>
        <mxCell id="e_DNNsqGoQ1BPr0Qhp8M-195" value="id" style="shape=partialRectangle;html=1;whiteSpace=wrap;connectable=0;strokeColor=inherit;overflow=hidden;fillColor=none;top=0;left=0;bottom=0;right=0;pointerEvents=1;fontSize=16;align=left;" vertex="1" parent="e_DNNsqGoQ1BPr0Qhp8M-193">
          <mxGeometry x="90" width="243" height="40" as="geometry">
            <mxRectangle width="243" height="40" as="alternateBounds" />
          </mxGeometry>
        </mxCell>
        <mxCell id="e_DNNsqGoQ1BPr0Qhp8M-196" value="" style="shape=tableRow;horizontal=0;startSize=0;swimlaneHead=0;swimlaneBody=0;strokeColor=inherit;top=0;left=0;bottom=0;right=0;collapsible=0;dropTarget=0;fillColor=none;points=[[0,0.5],[1,0.5]];portConstraint=eastwest;fontSize=16;" vertex="1" parent="e_DNNsqGoQ1BPr0Qhp8M-189">
          <mxGeometry y="80" width="333" height="40" as="geometry" />
        </mxCell>
        <mxCell id="e_DNNsqGoQ1BPr0Qhp8M-197" value="" style="shape=partialRectangle;html=1;whiteSpace=wrap;connectable=0;strokeColor=inherit;overflow=hidden;fillColor=none;top=0;left=0;bottom=0;right=0;pointerEvents=1;fontSize=16;" vertex="1" parent="e_DNNsqGoQ1BPr0Qhp8M-196">
          <mxGeometry width="90" height="40" as="geometry">
            <mxRectangle width="90" height="40" as="alternateBounds" />
          </mxGeometry>
        </mxCell>
        <mxCell id="e_DNNsqGoQ1BPr0Qhp8M-198" value="email NOT NULL unique" style="shape=partialRectangle;html=1;whiteSpace=wrap;connectable=0;strokeColor=inherit;overflow=hidden;fillColor=none;top=0;left=0;bottom=0;right=0;pointerEvents=1;fontSize=16;align=left;" vertex="1" parent="e_DNNsqGoQ1BPr0Qhp8M-196">
          <mxGeometry x="90" width="243" height="40" as="geometry">
            <mxRectangle width="243" height="40" as="alternateBounds" />
          </mxGeometry>
        </mxCell>
        <mxCell id="e_DNNsqGoQ1BPr0Qhp8M-199" style="shape=tableRow;horizontal=0;startSize=0;swimlaneHead=0;swimlaneBody=0;strokeColor=inherit;top=0;left=0;bottom=0;right=0;collapsible=0;dropTarget=0;fillColor=none;points=[[0,0.5],[1,0.5]];portConstraint=eastwest;fontSize=16;" vertex="1" parent="e_DNNsqGoQ1BPr0Qhp8M-189">
          <mxGeometry y="120" width="333" height="40" as="geometry" />
        </mxCell>
        <mxCell id="e_DNNsqGoQ1BPr0Qhp8M-200" value="" style="shape=partialRectangle;html=1;whiteSpace=wrap;connectable=0;strokeColor=inherit;overflow=hidden;fillColor=none;top=0;left=0;bottom=0;right=0;pointerEvents=1;fontSize=16;" vertex="1" parent="e_DNNsqGoQ1BPr0Qhp8M-199">
          <mxGeometry width="90" height="40" as="geometry">
            <mxRectangle width="90" height="40" as="alternateBounds" />
          </mxGeometry>
        </mxCell>
        <mxCell id="e_DNNsqGoQ1BPr0Qhp8M-201" value="password NOT NULL" style="shape=partialRectangle;html=1;whiteSpace=wrap;connectable=0;strokeColor=inherit;overflow=hidden;fillColor=none;top=0;left=0;bottom=0;right=0;pointerEvents=1;fontSize=16;align=left;" vertex="1" parent="e_DNNsqGoQ1BPr0Qhp8M-199">
          <mxGeometry x="90" width="243" height="40" as="geometry">
            <mxRectangle width="243" height="40" as="alternateBounds" />
          </mxGeometry>
        </mxCell>
        <mxCell id="e_DNNsqGoQ1BPr0Qhp8M-202" style="shape=tableRow;horizontal=0;startSize=0;swimlaneHead=0;swimlaneBody=0;strokeColor=inherit;top=0;left=0;bottom=0;right=0;collapsible=0;dropTarget=0;fillColor=none;points=[[0,0.5],[1,0.5]];portConstraint=eastwest;fontSize=16;" vertex="1" parent="e_DNNsqGoQ1BPr0Qhp8M-189">
          <mxGeometry y="160" width="333" height="40" as="geometry" />
        </mxCell>
        <mxCell id="e_DNNsqGoQ1BPr0Qhp8M-203" value="" style="shape=partialRectangle;html=1;whiteSpace=wrap;connectable=0;strokeColor=inherit;overflow=hidden;fillColor=none;top=0;left=0;bottom=0;right=0;pointerEvents=1;fontSize=16;" vertex="1" parent="e_DNNsqGoQ1BPr0Qhp8M-202">
          <mxGeometry width="90" height="40" as="geometry">
            <mxRectangle width="90" height="40" as="alternateBounds" />
          </mxGeometry>
        </mxCell>
        <mxCell id="e_DNNsqGoQ1BPr0Qhp8M-204" value="name" style="shape=partialRectangle;html=1;whiteSpace=wrap;connectable=0;strokeColor=inherit;overflow=hidden;fillColor=none;top=0;left=0;bottom=0;right=0;pointerEvents=1;fontSize=16;align=left;" vertex="1" parent="e_DNNsqGoQ1BPr0Qhp8M-202">
          <mxGeometry x="90" width="243" height="40" as="geometry">
            <mxRectangle width="243" height="40" as="alternateBounds" />
          </mxGeometry>
        </mxCell>
        <mxCell id="e_DNNsqGoQ1BPr0Qhp8M-205" style="shape=tableRow;horizontal=0;startSize=0;swimlaneHead=0;swimlaneBody=0;strokeColor=inherit;top=0;left=0;bottom=0;right=0;collapsible=0;dropTarget=0;fillColor=none;points=[[0,0.5],[1,0.5]];portConstraint=eastwest;fontSize=16;" vertex="1" parent="e_DNNsqGoQ1BPr0Qhp8M-189">
          <mxGeometry y="200" width="333" height="40" as="geometry" />
        </mxCell>
        <mxCell id="e_DNNsqGoQ1BPr0Qhp8M-206" value="" style="shape=partialRectangle;html=1;whiteSpace=wrap;connectable=0;strokeColor=inherit;overflow=hidden;fillColor=none;top=0;left=0;bottom=0;right=0;pointerEvents=1;fontSize=16;" vertex="1" parent="e_DNNsqGoQ1BPr0Qhp8M-205">
          <mxGeometry width="90" height="40" as="geometry">
            <mxRectangle width="90" height="40" as="alternateBounds" />
          </mxGeometry>
        </mxCell>
        <mxCell id="e_DNNsqGoQ1BPr0Qhp8M-207" value="createdAt" style="shape=partialRectangle;html=1;whiteSpace=wrap;connectable=0;strokeColor=inherit;overflow=hidden;fillColor=none;top=0;left=0;bottom=0;right=0;pointerEvents=1;fontSize=16;align=left;" vertex="1" parent="e_DNNsqGoQ1BPr0Qhp8M-205">
          <mxGeometry x="90" width="243" height="40" as="geometry">
            <mxRectangle width="243" height="40" as="alternateBounds" />
          </mxGeometry>
        </mxCell>
        <mxCell id="e_DNNsqGoQ1BPr0Qhp8M-208" style="shape=tableRow;horizontal=0;startSize=0;swimlaneHead=0;swimlaneBody=0;strokeColor=inherit;top=0;left=0;bottom=0;right=0;collapsible=0;dropTarget=0;fillColor=none;points=[[0,0.5],[1,0.5]];portConstraint=eastwest;fontSize=16;" vertex="1" parent="e_DNNsqGoQ1BPr0Qhp8M-189">
          <mxGeometry y="240" width="333" height="40" as="geometry" />
        </mxCell>
        <mxCell id="e_DNNsqGoQ1BPr0Qhp8M-209" value="" style="shape=partialRectangle;html=1;whiteSpace=wrap;connectable=0;strokeColor=inherit;overflow=hidden;fillColor=none;top=0;left=0;bottom=0;right=0;pointerEvents=1;fontSize=16;" vertex="1" parent="e_DNNsqGoQ1BPr0Qhp8M-208">
          <mxGeometry width="90" height="40" as="geometry">
            <mxRectangle width="90" height="40" as="alternateBounds" />
          </mxGeometry>
        </mxCell>
        <mxCell id="e_DNNsqGoQ1BPr0Qhp8M-210" value="updatedAt" style="shape=partialRectangle;html=1;whiteSpace=wrap;connectable=0;strokeColor=inherit;overflow=hidden;fillColor=none;top=0;left=0;bottom=0;right=0;pointerEvents=1;fontSize=16;align=left;" vertex="1" parent="e_DNNsqGoQ1BPr0Qhp8M-208">
          <mxGeometry x="90" width="243" height="40" as="geometry">
            <mxRectangle width="243" height="40" as="alternateBounds" />
          </mxGeometry>
        </mxCell>
        <mxCell id="e_DNNsqGoQ1BPr0Qhp8M-211" value="資料庫schema" style="rounded=0;whiteSpace=wrap;html=1;fontSize=16;" vertex="1" parent="1">
          <mxGeometry x="3110" y="2302" width="330" height="40" as="geometry" />
        </mxCell>
        <mxCell id="e_DNNsqGoQ1BPr0Qhp8M-216" value="" style="rounded=0;whiteSpace=wrap;html=1;fillColor=none;strokeWidth=3;strokeColor=#FF0D0D;" vertex="1" parent="1">
          <mxGeometry x="1630" y="-130" width="860" height="1110" as="geometry" />
        </mxCell>
      </root>
    </mxGraphModel>
  </diagram>
</mxfile>
